<?xml version="1.0" encoding="UTF-8"?>
<svg id="Layer_1" data-name="Layer 1" xmlns="http://www.w3.org/2000/svg" viewBox="0 0 993 993">
  <defs>
    <style>
      .cls-1 {
        fill: #000;
      }

      .cls-1, .cls-2 {
        stroke-width: 0px;
      }

      .cls-2 {
        fill: #fff;
      }
    </style>
  </defs>
  <path class="cls-2" d="M993,534.25v458.75H0C0,662,0,331,0,0c331,0,662,0,993,0,0,158.73,0,317.45,0,476.18-.62-3.42-1.39-6.82-1.85-10.26-2.36-17.56-3.66-35.32-7.1-52.65-23.33-117.69-81.15-215.37-174.56-290.45C686.27,23.78,545.53-7.68,391.44,23.65c-106.07,21.56-194.82,75.46-266.11,156.55C57.12,257.79,16.24,348.22,5.27,451.54c-10.47,98.68,4.18,193.21,50.57,281.23,61.59,116.88,153.89,199.58,279.68,243.25,24.25,8.42,39.6-2.15,39.41-27.71-.19-26.13-.54-52.25-.88-78.38-.03-2.43-.51-4.85-.48-4.53-24.19,0-47.33.8-70.39-.21-27.25-1.2-52.67-8.38-73.64-27.41-13.17-11.95-19.25-27.82-26.36-43.36-11.92-26.08-26.51-50.04-52.55-65.03-5.87-3.38-10.33-9.57-14.71-15.05-4.76-5.94-2.43-11.26,4.66-11.67,10.39-.6,21.49-1.34,31.23,1.55,27.07,8.03,47.21,25.67,61.5,49.99,9.11,15.51,20.4,29.15,35.87,38.59,34.03,20.77,68.64,13.96,103.06,1.01,2.21-.83,4.11-4.79,4.58-7.55,3.64-21.89,12.28-41.24,27.76-57.36.49-.51.32-1.66.09-.21-30.05-7.55-60.4-12.81-89.04-22.92-45.61-16.11-83.27-43.55-105.5-88.42-16.09-32.47-24.42-67.01-27.52-102.98-5.11-59.34,4.57-114.39,45.41-160.79,2.01-2.28,3.17-7.17,2.19-9.95-12.46-35.53-10.57-70.92-.1-106.43,6.48-21.99,10.63-24.59,33.36-19.94.63.13,1.24.36,1.86.53,36.15,9.54,69.4,25.4,100.86,45.47,4.06,2.59,10.49,4.1,15.02,2.96,77.56-19.55,154.96-19.57,232.51.02,4.32,1.09,10.08-.33,14.26-2.41,24.74-12.34,48.9-25.88,73.88-37.68,15.41-7.28,31.99-12.25,49.56-9.62,2.64.4,6.36,2.45,7.22,4.66,14.93,38.55,20.49,77.89,7.2,118.06-2.46,7.43-1.47,12.08,3.51,17.83,20.22,23.34,33.29,50.39,39.68,80.62,6.36,30.04,5.35,60.31,1.81,90.49-4.56,38.83-14.91,76.07-37.54,108.5-30.8,44.14-76,66.49-126.56,79.33-18.83,4.78-38.22,7.35-57.56,10.97,4.98,6.58,10.29,12.62,14.49,19.35,14.39,23.07,17.03,49.01,17.14,75.34.19,43.22-.08,86.45.12,129.67.11,21.99,14.54,32.81,35.42,25.8,37.68-12.66,73.52-29.43,107.13-50.78,64.28-40.84,115.67-94.5,155.99-158.75,36.08-57.49,59.11-119.98,68.16-187.4,2.05-15.28,3.61-30.63,5.39-45.94Z"/>
  <path class="cls-1" d="M993,534.25c-1.78,15.32-3.34,30.66-5.39,45.94-9.06,67.42-32.09,129.91-68.16,187.4-40.32,64.24-91.7,117.91-155.99,158.75-33.61,21.35-69.46,38.12-107.13,50.78-20.87,7.01-35.31-3.81-35.42-25.8-.21-43.22.07-86.45-.12-129.67-.12-26.34-2.75-52.28-17.14-75.34-4.2-6.73-9.51-12.77-14.49-19.35,19.34-3.62,38.73-6.19,57.56-10.97,50.56-12.84,95.76-35.18,126.56-79.33,22.63-32.43,32.98-69.67,37.54-108.5,3.54-30.17,4.55-60.45-1.81-90.49-6.4-30.23-19.46-57.28-39.68-80.62-4.98-5.75-5.97-10.39-3.51-17.83,13.29-40.17,7.73-79.51-7.2-118.06-.85-2.21-4.57-4.26-7.22-4.66-17.57-2.63-34.15,2.34-49.56,9.62-24.98,11.8-49.14,25.34-73.88,37.68-4.18,2.08-9.94,3.5-14.26,2.41-77.55-19.59-154.95-19.57-232.51-.02-4.53,1.14-10.95-.37-15.02-2.96-31.45-20.06-64.7-35.93-100.86-45.47-.62-.16-1.23-.4-1.86-.53-22.73-4.65-26.88-2.05-33.36,19.94-10.46,35.51-12.35,70.9.1,106.43.98,2.79-.18,7.67-2.19,9.95-40.84,46.4-50.52,101.45-45.41,160.79,3.1,35.98,11.43,70.51,27.52,102.98,22.23,44.87,59.89,72.31,105.5,88.42,28.64,10.12,58.99,15.37,89.04,22.92.23-1.45.41-.3-.09.21-15.47,16.12-24.12,35.47-27.76,57.36-.46,2.77-2.37,6.72-4.58,7.55-34.42,12.95-69.03,19.77-103.06-1.01-15.47-9.44-26.76-23.08-35.87-38.59-14.29-24.32-34.43-41.96-61.5-49.99-9.74-2.89-20.84-2.15-31.23-1.55-7.09.41-9.41,5.72-4.66,11.67,4.38,5.48,8.84,11.67,14.71,15.05,26.04,15,40.63,38.95,52.55,65.03,7.1,15.54,13.19,31.41,26.36,43.36,20.97,19.03,46.39,26.22,73.64,27.41,23.06,1.01,46.21.21,70.39.21-.04-.32.44,2.1.48,4.53.34,26.13.7,52.25.88,78.38.18,25.57-15.17,36.13-39.41,27.71-125.79-43.67-218.09-126.37-279.68-243.25C9.45,644.75-5.2,550.21,5.27,451.54c10.97-103.32,51.85-193.75,120.06-271.33C196.62,99.11,285.37,45.21,391.44,23.65c154.09-31.33,294.83.13,418.05,99.16,93.41,75.08,151.23,172.77,174.56,290.45,3.44,17.34,4.74,35.1,7.1,52.65.46,3.44,1.23,6.84,1.85,10.26v58.07Z"/>
</svg>