<?xml version="1.0" encoding="UTF-8"?>
<svg id="Layer_1" data-name="Layer 1" xmlns="http://www.w3.org/2000/svg" viewBox="0 0 421.5 519.97">
  <defs>
    <style>
      .cls-1 {
        fill: #000;
        stroke-width: 0px;
      }
    </style>
  </defs>
  <path class="cls-1" d="M65.85,41.59c12.92.72,25.41,1.6,37.48,5.37,1.36.42,2.68,1,3.96,1.62,5.67,2.75,6.4,4.65,4.66,10.61-12.82,43.95-25.6,87.91-38.39,131.87-.57,1.96-1.13,3.92-1.43,5.99,25.54-59.84,52.59-118.91,85.45-175.13,11.6-2.7,49.21,8.76,52.88,15.9-11.6,28.58-23.13,56.99-34.66,85.41.32.14.64.29.96.43,28.23-42,54.58-85.34,88.2-123.66,3.83,1.13,7.14,1.9,10.3,3.09,7.49,2.82,15.1,5.44,22.31,8.88,7.88,3.76,8.81,8.59,5.46,16.53-8.48,20.11-16.63,40.37-24.83,60.6-5.81,14.34-11.5,28.73-17.24,43.09-.36.9-.79,1.78-1.25,2.84-16.71-1.7-33.35-2.59-50.28,1.8,14.09-23.55,27.92-46.64,41.74-69.74-.1-.12-.21-.24-.31-.35-.45.43-.97.82-1.36,1.31-17.93,22.96-35.83,45.93-53.78,68.87-.64.81-1.55,1.64-2.49,1.95-20.9,6.78-40.68,15.89-59.56,28.42,10.07-28.01,20.27-55.36,26.77-84.02-.74,1.1-1.51,2.18-2.21,3.3-28.26,44.72-53.79,90.95-73.41,140.12-10.03,25.14-17.78,51.2-26.45,76.89-3.86,11.44-7.46,22.97-11.19,34.45-1.06,3.28-2.19,4.01-5.35,2.58-7.6-3.43-15.28-6.76-22.57-10.79-9.25-5.11-12-11.91-9.35-22.2,6.21-24.14,12.5-48.26,18.98-72.33,12.96-48.13,26.08-96.23,39.12-144.34.08-.3.05-.63.09-1.45-2.29,2.61-4.25,4.93-6.3,7.18-9.98,10.99-19.78,22.15-30.04,32.87-8.44,8.81-18.8,15.13-29.56,20.75-.45.23-.95.37-2.2.85,24.99-35.22,49.16-70.01,65.85-109.56Z"/>
  <path class="cls-1" d="M193.58,175.09c-19.33,5.61-36.27,13.59-50.81,26.27-15.11,13.18-22.15,30.48-25.65,49.63-2.42,13.25-3.24,26.61-2.78,40.06.04,1.17,0,2.35,0,4.3-10.77-5.21-21.1-10.21-31.42-15.19-2.36-13.81-1.07-27.04,2.87-40.04,6.78-22.42,20.29-40.27,38.23-54.89,27.67-22.55,58.92-37.43,94.44-42.39,21.35-2.99,42.6-2.89,62.81,6.23,4.69,2.11,9.3,4.55,13.58,7.39,20.96,13.9,28.49,34.14,21.91,58.38-3.87,14.28-11.01,26.99-19.24,39.12-12.9,19.02-28.24,35.94-44.93,51.67-1.19,1.13-2.4,2.24-3.76,3.51.52,2.33,1.03,4.67,1.65,7.43-13.29,22.87-21.37,48.08-27.94,73.92-2.19-20.28-4.39-40.56-6.64-61.4-7.5,3.05-14.48,5.65-21.19,8.8-1.65.77-2.97,3.19-3.56,5.12-8.92,29.19-17.69,58.42-26.49,87.64-2.15,7.15-4.31,14.29-6.48,21.44-.25.82-.58,1.61-.97,2.68-.98-.2-1.88-.19-2.59-.56-7.67-4.03-15.57-7.73-22.91-12.3-9.14-5.69-12.89-15.3-10.05-25.72,5.16-18.96,10.8-37.79,16.25-56.67,1.28-4.43,2.63-8.84,3.87-13.28.37-1.32.47-2.72.65-3.86-8.55-6.32-11.39-11.08-10.48-17.8h15.69c15.3-49.8,30.5-99.25,45.94-149.49ZM202.62,306.73c2.95-1.84,5.22-3.12,7.34-4.6,20.96-14.65,39.45-31.93,55.08-52.19,5.98-7.75,11.47-15.88,14.63-25.26,4.91-14.58,5-29-2.9-42.66-7.02-12.14-20.49-17.33-33.8-13.22-13.32,45.53-26.71,91.31-40.35,137.92Z"/>
  <path class="cls-1" d="M355.39,242.87c.62-.97,1.21-1.65,1.54-2.44,2.38-5.81,7.24-6.96,12.51-5.85,12.67,2.66,25.25,5.74,37.84,8.76,2.19.53,4.24,1.62,6.87,2.65-1.33,2.65-2.13,4.55-3.19,6.3-15.86,26.35-29.19,53.83-37.38,83.62-4.74,17.27-7.41,34.81-7.3,52.75.01,2.3-.26,4.61-.47,6.9-.05.5-.42.97-.97,2.19-2.33-.88-4.81-1.4-6.83-2.65-14.06-8.72-21.08-21.99-23.77-37.84-3.44-20.29-.23-40.08,4.95-59.67,1.17-4.41,2.59-8.75,4.18-14.09-4.7,3.33-8.82,5.98-12.64,9.01-23.79,18.8-39.74,43.19-50.08,71.39-11.56,31.51-15.39,63.82-8.34,96.91,1.71,8,4.41,15.88,7.47,23.48,4.9,12.18,16.86,18.11,29.57,14.81,5.04-1.31,10.05-3.35,14.59-5.91,17.16-9.69,30.76-23.61,44.82-38.41-1.89.09-3,.15-4.11.19-17.18.63-34.34.55-51.24-3.05-4.79-1.02-9.47-2.81-13.99-4.74-4.42-1.89-7.38-5.39-8.71-10.16-1.11-3.98-2.4-7.91-3.69-12.12,7.16.59,13.91,1.35,20.68,1.67,33.41,1.58,65.27-4.05,94.66-20.79,2.48-1.41,4.86-3,7.26-4.56,3.55-2.31,4.73-2.1,6.55,1.85,5.26,11.44,6.97,23.31,3.66,35.64-.82,3.07-1.9,6.06-2.88,9.15-3.91,1.42-7.83,2.58-11.49,4.28-1.93.9-3.95,2.44-5.02,4.23-12.85,21.37-28.84,39.82-50.85,51.98-26.42,14.61-54.1,14.95-81.77,3.95-18.22-7.24-29.46-21.28-35.99-39.74-4.03-11.39-4.99-22.92-4.74-34.7,1.58-72.8,28.43-134.14,83.19-182.75,6.35-5.64,12.79-11.57,21.62-12.53,6.7-.73,13.55-.18,20.33-.15.97,0,1.94.27,3.19.46Z"/>
</svg>