<?xml version="1.0" encoding="UTF-8"?>
<svg id="Layer_1" data-name="Layer 1" xmlns="http://www.w3.org/2000/svg" xmlns:xlink="http://www.w3.org/1999/xlink" viewBox="0 0 852.34 1000.29">
  <defs>
    <style>
      .cls-1 {
        stroke-width: .09px;
      }

      .cls-1, .cls-2, .cls-3, .cls-4, .cls-5, .cls-6, .cls-7, .cls-8, .cls-9, .cls-10, .cls-11 {
        fill: none;
      }

      .cls-1, .cls-2, .cls-3, .cls-4, .cls-6, .cls-7, .cls-8, .cls-9, .cls-10, .cls-11 {
        stroke: #fff;
      }

      .cls-1, .cls-2, .cls-3, .cls-4, .cls-6, .cls-7, .cls-8, .cls-10, .cls-11 {
        stroke-miterlimit: 10;
      }

      .cls-2 {
        stroke-width: .04px;
      }

      .cls-3 {
        stroke-width: .11px;
      }

      .cls-12 {
        fill: #0a4ca1;
      }

      .cls-12, .cls-5, .cls-13 {
        stroke-width: 0px;
      }

      .cls-4 {
        stroke-width: .04px;
      }

      .cls-14 {
        clip-path: url(#clippath-1);
      }

      .cls-6 {
        stroke-width: .07px;
      }

      .cls-7 {
        stroke-width: .15px;
      }

      .cls-8 {
        stroke-width: .03px;
      }

      .cls-9 {
        stroke-miterlimit: 1;
        stroke-width: 2.49px;
      }

      .cls-15 {
        clip-path: url(#clippath);
      }

      .cls-10 {
        stroke-width: .07px;
      }

      .cls-13 {
        fill: #fff;
      }

      .cls-11 {
        stroke-width: .25px;
      }
    </style>
    <clipPath id="clippath">
      <rect class="cls-5" width="852.34" height="1000.29"/>
    </clipPath>
    <clipPath id="clippath-1">
      <rect class="cls-5" x="5.98" y=".07" width="798.09" height="994.87"/>
    </clipPath>
  </defs>
  <g id="surface1">
    <path class="cls-13" d="M138.71,149.06c26.82-25.28,71.33-51.13,117.98-75.26,46.45-23.97,92.48-45.01,139.27-68.25l4.53-2.25,4.5,2.25c46.95,23.35,93,44.23,139.64,68.25,46.9,24.18,91.65,50.03,118.5,75.37,129.68,110.43,173.12,323.86,104.44,482.81-69.98,162.04-216.13,280.12-362.06,363.33l-5.01,2.88-5.04-2.88c-146.05-83.27-291.36-201.29-361.3-363.33C-34.53,472.98,8.94,259.44,138.71,149.06"/>
    <g class="cls-15">
      <path class="cls-9" d="M138.71,149.06c26.82-25.28,71.33-51.13,117.98-75.26,46.45-23.97,92.48-45.01,139.27-68.25l4.53-2.25,4.5,2.25c46.95,23.35,93,44.23,139.64,68.25,46.9,24.18,91.65,50.03,118.5,75.37,129.68,110.43,173.12,323.86,104.44,482.81-69.98,162.04-216.13,280.12-362.06,363.33l-5.01,2.88-5.04-2.88c-146.05-83.27-291.36-201.29-361.3-363.33C-34.53,472.98,8.94,259.44,138.71,149.06"/>
    </g>
    <g class="cls-14">
      <path class="cls-12" d="M142.89,145.76c26.82-25.23,71.3-51.08,117.98-75.21,46.44-24.02,92.49-45.01,139.26-68.3L404.65,0l4.52,2.25c46.94,23.34,92.98,44.28,139.64,68.3,46.89,24.13,91.64,50.03,118.49,75.31,129.67,110.43,173.11,323.87,104.43,482.87-69.96,162.04-216.12,280.11-362.06,363.33l-5.01,2.88-5.04-2.88c-146.03-83.32-291.35-201.29-361.3-363.33C-30.37,469.68,13.1,256.2,142.89,145.76"/>
    </g>
    <path class="cls-13" d="M406.51,931.98v9.79h-9.82v7.17h9.82v9.78h7.14v-9.78h9.82v-7.17h-9.82v-9.79h-7.14"/>
    <path class="cls-13" d="M325.43,907.54c-4.48,7.85-1.71,16.12,5.09,21.04,9.55,6.91,20.48,3.76,27.28-5.66,6.6-9.05,6.28-20.41-3.3-27.37-7.55-5.5-16.55-4.35-22.96,2.98l6.6,4.81c3.53-3.76,7.98-5.02,12.14-1.99,6.11,4.45,4.55,11.42.72,16.65-3.99,5.55-10.15,9.16-16.24,4.76-3.4-2.46-4.58-7.01-2.76-10.42l-6.57-4.81"/>
    <path class="cls-13" d="M318.63,893.46c-4.28,5.34-10.61,8.64-16.48,3.87-5.87-4.76-3.94-11.62.34-16.91,4.09-5.08,10.41-8.37,16.28-3.61,5.86,4.71,3.94,11.57-.14,16.64M325.14,898.75c7.08-8.69,7.34-20.1-1.85-27.53-9.17-7.48-20.27-4.81-27.31,3.87-7.29,9-7.56,20.41,1.63,27.84,9.19,7.43,20.26,4.81,27.52-4.19"/>
    <path class="cls-13" d="M302.81,857.4l-5.91-5.13-17.13,19.68-.08-.06,5.12-30.14-6.35-5.5-25.56,29.41,5.95,5.18,17.14-19.78.09.1-5.13,30.2,6.3,5.44,25.55-29.41"/>
    <path class="cls-13" d="M224.12,839.13l6.36,5.91,24.97-14.13.09.05-12.47,25.86,6.33,5.86,17.5-36.95-6.91-6.44-35.86,19.83"/>
    <path class="cls-13" d="M197.54,776.75c7.21-6.34,5.09-15.08-.58-21.36-6.94-7.69-14.61-8.22-19.9-3.45-6.57,5.91-2.17,13.5-.87,16.07,4.56,8.74,5.5,10.36,3.24,12.4-2.41,2.19-5.36.62-7.13-1.36-2.71-2.93-3.99-6.17-.67-9.52l-5.44-6.02c-6.7,6.02-4.45,13.82.91,19.73,4.61,5.13,12.38,8.06,18.31,2.72,5.43-4.87,3.25-10.62.61-15.91-2.63-5.13-5.93-9.89-2.81-12.72,2.97-2.62,6.61.11,8.6,2.3,3,3.35,4.15,7.64.3,11.09l5.43,6.02"/>
    <path class="cls-13" d="M123.84,717.55l-3.43-4.87c-4.79-6.86-2.22-11.94,4.24-16.44,7.05-4.92,12.22-2.88,15.01,1.1l4.32,6.17-20.14,14.03ZM154.69,706.25l-9.46-13.5c-6.7-9.52-16.83-9.37-26.08-2.88-10.61,7.38-11.52,17.12-5.83,25.23l9.43,13.5,31.94-22.35"/>
    <path class="cls-13" d="M111.48,677.31c-5.9,3.4-13,4.23-16.77-2.3-3.75-6.54.49-12.3,6.4-15.7,5.63-3.25,12.7-4.03,16.48,2.46,3.77,6.54-.48,12.3-6.11,15.55M115.68,684.58c9.74-5.6,14.07-16.17,8.15-26.38-5.93-10.26-17.21-11.78-26.93-6.12-10.03,5.75-14.34,16.27-8.44,26.48,5.91,10.32,17.19,11.83,27.21,6.02"/>
    <path class="cls-13" d="M111.72,638.21l-3.32-7.12-24.79,11.51-.06-.05,20.85-20.05-2.72-5.86-29,3.19-.05-.1,25.01-11.67-3.32-7.12-35.31,16.49,5.01,10.68,27.84-3.67.06.1-20.53,19.42,5.01,10.73,35.32-16.49"/>
    <path class="cls-13" d="M52.8,599.27l2.87,7.85,36.61-13.29-2.87-7.9-36.61,13.35"/>
    <path class="cls-13" d="M87.43,577.39l-2.17-7.54-25.08,7.17-.03-.11,20.71-22.45-2.33-8.11-37.46,10.73,2.17,7.59,25.13-7.17.03.11-20.74,22.5,2.3,8.01,37.45-10.73"/>
    <path class="cls-13" d="M37.07,539.03l1.78,8.27,38.1-8.11-1.74-8.21-38.14,8.06"/>
    <path class="cls-13" d="M42.77,494.65c-8.74,2.41-12.6,10.15-11.28,18.42,1.85,11.72,11.84,17.17,23.25,15.33,11.09-1.78,18.92-10.05,17.07-21.67-1.48-9.27-8.66-14.81-18.38-14.13l1.28,8.06c5.18-.21,9.17,2.09,9.97,7.17,1.17,7.43-4.85,11.3-11.25,12.3-6.72,1.05-13.67-.73-14.82-8.17-.67-4.13,1.68-8.17,5.42-9.31l-1.25-8.01"/>
    <path class="cls-13" d="M29.12,478.79l.59,8.37,38.89-2.72-.57-8.37-38.91,2.72"/>
    <path class="cls-13" d="M40.45,437.18l-.3,5.7,10.84.58-.54,10.62,5.81.32.57-10.62,10.84.57.3-5.7-10.85-.58.57-10.62-5.85-.32-.54,10.63-10.85-.58"/>
    <path class="cls-13" d="M32.26,401.01l38.51,6.07,1.31-8.26-38.51-6.13-1.31,8.32"/>
    <path class="cls-13" d="M72.73,391.39l1.77-7.64-25.44-5.86.02-.1,29-9.63,1.91-8.16-37.98-8.79-1.77,7.69,25.45,5.86-.03.1-29.04,9.68-1.87,8.11,37.97,8.74"/>
    <path class="cls-13" d="M69.18,351.24c9.12,3.08,15.6-3.14,18.23-11.2,3.19-9.84-.18-16.75-7-18.95-8.38-2.72-12.74,4.81-14.3,7.22-5.34,8.38-6.27,9.95-9.11,9.05-3.12-.99-3.25-4.29-2.45-6.85,1.25-3.82,3.4-6.54,7.95-5.34l2.5-7.74c-8.54-2.78-14.18,3.08-16.64,10.67-2.15,6.54-.77,14.76,6.78,17.23,6.97,2.25,10.85-2.52,14.06-7.43,3.19-4.87,5.63-10.1,9.63-8.8,3.8,1.25,3.24,5.76,2.33,8.58-1.4,4.29-4.53,7.43-9.46,5.81l-2.53,7.75"/>
    <path class="cls-13" d="M70.17,276.4l-3.54,7.9,21.54,19.05-.05.05-28.48-3.35-3.54,7.9,40.65,4.5,3.85-8.64-30.44-27.43"/>
    <path class="cls-13" d="M106.72,289.06l12.25-24.07-6.41-3.24-8.44,16.59-28.33-14.44-3.79,7.48,34.73,17.69"/>
    <path class="cls-13" d="M117.91,262.68l5.5-7.07-4.45-8.37,7.38-9.42,6.83,5.34,16.21-20.73-5.68-4.45-11.2,14.34-7.54-5.86,10.26-13.19-5.22-4.09-10.29,13.14-6.57-5.13,10.94-13.98-5.69-4.45-19.95,25.54,19.47,38.36ZM107.01,225.05l1.12-1.46,13.16,10.31-5.67,7.27-8.62-16.12"/>
    <path class="cls-13" d="M155.68,184.07l7.26,8.06-7.9,7.17,3.91,4.29,7.9-7.07,7.29,8.06,4.24-3.82-7.27-8.11,7.91-7.12-3.91-4.34-7.9,7.12-7.29-8.01-4.24,3.76"/>
    <path class="cls-13" d="M200.26,178l6.88-4.81-9.64-13.76,12.64-8.9,9.66,13.76,6.88-4.76-22.35-31.98-6.88,4.87,8.57,12.25-12.65,8.85-8.57-12.25-6.88,4.82,22.35,31.92"/>
    <path class="cls-13" d="M233,155.71l7.13-4.45-20.66-33.08-7.13,4.45,20.66,33.08"/>
    <path class="cls-13" d="M238.81,137.96c4.55,8.48,13.53,8.38,20.93,4.29,9.08-5.08,11.33-12.4,7.85-18.68-4.29-7.75-12.65-5.19-15.42-4.4-9.62,2.41-11.38,2.99-12.84.32-1.58-2.83.56-5.34,2.89-6.65,3.55-1.94,6.95-2.46,9.46,1.52l7.13-3.98c-4.4-7.85-12.51-7.43-19.48-3.51-6.03,3.3-10.64,10.26-6.78,17.22,3.56,6.38,9.65,5.55,15.36,4.13,5.66-1.36,10.98-3.5,13.02.16,1.93,3.46-1.56,6.44-4.14,7.85-3.94,2.19-8.38,2.3-10.87-2.2l-7.13,3.93"/>
    <path class="cls-13" d="M270.29,97.82l5.81-2.99c3.5-1.78,6.97-2.56,9.23,1.89,2.25,4.4-.44,6.8-3.91,8.53l-5.81,2.98-5.31-10.41ZM277.47,130.43l7.47-3.82-6.32-12.45,7.85-4.03c8.49-4.29,8.97-11.46,6.11-17.11-2.89-5.65-8.97-9.42-17.47-5.13l-15.33,7.85,17.69,34.7"/>
    <path class="cls-13" d="M308.61,113.63l7.19-3.19-10.61-23.81.1-.05,25.11,17.38,7.69-3.4-15.87-35.64-7.19,3.19,10.64,23.92-.1.05-25.19-17.43-7.64,3.4,15.87,35.59"/>
    <path class="cls-13" d="M206.41,814.96l3.46,3.4,10.31-3.51.06.06-3.56,10.31,3.46,3.4,4.91-14.76-3.78-3.71-14.84,4.81"/>
    <path class="cls-13" d="M211.01,806.42c2.47-2.41.4-6.6-2.95-9.94-4.12-4.14-7.67-4.97-9.46-3.19-2.25,2.25.72,6.07,1.63,7.38,3.17,4.45,3.78,5.24,3.04,6.02-.84.84-2.34-.11-3.42-1.2-1.59-1.57-2.56-3.2-1.49-4.45l-3.24-3.24c-2.25,2.25-.23,6.07,2.92,9.21,2.73,2.78,6.62,4.71,8.64,2.72,1.85-1.83.13-4.71-1.71-7.32-1.86-2.62-3.94-5.08-2.91-6.13,1.02-.99,3.04.58,4.19,1.72,1.79,1.78,2.87,3.87,1.53,5.19l3.23,3.24"/>
    <path class="cls-13" d="M215.95,788.37l5.26,5.23-3.51,3.56,2.84,2.83,3.51-3.51,5.25,5.28,1.91-1.94-5.26-5.23,3.5-3.51-2.81-2.88-3.55,3.56-5.25-5.29-1.88,1.89"/>
    <path class="cls-13" d="M147.05,750l-4.02-4.97-2,1.62,11.03,13.66,2.02-1.63-4.04-4.97,8.79-7.17-2.98-3.66-8.8,7.12"/>
    <path class="cls-13" d="M135.06,739.27l2.98,3.66,10.8-8.74-2.97-3.66-10.81,8.74"/>
    <path class="cls-13" d="M159.2,724.25l4.7,5.81-3.86,3.09,2.51,3.14,3.86-3.14,4.72,5.76,2.03-1.63-4.69-5.81,3.86-3.14-2.5-3.09-3.85,3.13-4.72-5.81-2.07,1.67"/>
    <path class="cls-13" d="M333.19,63.59l8.05,16.44,11.59-5.66-1.46-3.03-8.02,3.93-6.53-13.45-3.63,1.78"/>
    <path class="cls-13" d="M352.84,54.02l.17,20.25,3.83-1.88-.11-4.45,5.18-2.51,1.74,3.66,11.34-5.55-1.48-2.99-7.83,3.77-1.95-4.03,7.16-3.51-1.35-2.77-7.17,3.51-1.75-3.51,7.64-3.77-1.48-3.04-13.93,6.81ZM356.36,56.06l.74-.37,3.45,7.07-3.96,1.94-.23-8.64"/>
    <path class="cls-13" d="M406.49,41.45h-6.09v11.2h-11.25v6.02h11.25v11.15h6.09v-11.15h11.28v-6.02h-11.28v-11.2"/>
    <path class="cls-13" d="M456.22,60.19l.1.05-1.01,15.08-9.41-3.98,10.32-11.15ZM427.04,79.66l8.06,3.46,6.23-6.81,13.56,5.76-.64,9.16,8.28,3.51,1.65-41.61-8.17-3.51-28.97,30.05"/>
    <path class="cls-13" d="M509.49,87.83c2.87-8.58-1.61-16.23-9.46-19.89-11.04-5.13-21.33,0-26.21,10.46-4.78,10.21-2.1,21.41,8.95,26.54,8.76,4.08,17.52,1.31,22.46-7.12l-7.62-3.56c-2.79,4.4-6.99,6.38-11.79,4.14-7.04-3.3-6.91-10.42-4.17-16.33,2.89-6.18,8.31-10.89,15.35-7.59,3.89,1.83,6.03,6.07,4.91,9.84l7.59,3.51"/>
    <path class="cls-13" d="M530.81,95.52l.08.05-2.3,14.97-9.03-4.82,11.25-10.21ZM500.03,112.42l7.74,4.14,6.81-6.23,12.99,6.91-1.44,9.05,7.93,4.24,5.31-41.35-7.85-4.13-31.5,27.37"/>
    <path class="cls-13" d="M564.12,111.8l5.21,3.3c7.3,4.56,6.98,10.26,2.83,16.96-4.6,7.27-10.25,7.33-14.5,4.66l-6.54-4.09,13-20.82ZM539.95,134.14l14.4,9c10.21,6.39,19.62,2.36,25.6-7.22,6.84-10.99,3.71-20.41-4.95-25.8l-14.39-9-20.66,33.02"/>
    <path class="cls-13" d="M575.93,155.92l24.49,17.16,4.13-5.91-17.39-12.19,5.5-7.8,15.62,10.94,3.81-5.44-15.62-10.99,4.79-6.81,17.02,11.94,4.15-5.91-24.11-16.85-22.38,31.87"/>
    <path class="cls-13" d="M607.26,177.53l6.19,5.18,17.6-20.93.09.05-10.19,27.16,5.09,4.29,25.17-14.97.08.1-17.74,21.15,6.19,5.23,25.05-29.88-9.36-7.8-23.87,14.92-.1-.1,10.18-26.43-9.32-7.8-25.06,29.83"/>
    <path class="cls-13" d="M646.35,211.23l6.25,6.07,27.06-28.05-6.24-6.02-27.07,28"/>
    <path class="cls-13" d="M690.47,216.63l.05.1-7.5,13.14-6.7-7.75,14.14-5.5ZM655.69,221.39l5.73,6.6,8.57-3.35,9.68,11.1-4.62,7.95,5.9,6.75,19.75-36.64-5.81-6.7-39.2,14.29"/>
    <path class="cls-13" d="M735.86,278.08l-2.67-5.29-9.68,4.92-4.96-9.79-5.22,2.61,4.99,9.79-9.7,4.92,2.64,5.28,9.71-4.92,4.96,9.78,5.19-2.66-4.96-9.79,9.7-4.87"/>
    <path class="cls-13" d="M563.81,810.61l-6.44,5.81,26.07,28.95,6.42-5.81-26.06-28.94"/>
    <path class="cls-13" d="M545.18,826.15l-6.18,5.18,17.54,20.99-.07.05-24.98-14.76-5.09,4.29,10.35,27.37-.08.05-17.77-21.15-6.19,5.24,25.06,29.83,9.31-7.79-10.56-26.17.12-.05,24.24,14.6,9.36-7.85-25.06-29.83"/>
    <path class="cls-13" d="M512.5,893.62l-5.31,4.13c-3.17,2.46-6.54,3.98-9.59.11-3.06-3.93-.77-6.81,2.41-9.27l5.31-4.19,7.19,9.21ZM499.41,862.79l-6.81,5.34,8.57,11.04-7.15,5.6c-7.74,6.07-6.95,13.24-3.03,18.21,3.89,5.03,10.69,7.54,18.44,1.47l13.98-10.94-24.01-30.72"/>
    <path class="cls-13" d="M453.8,915.81l2.05,2.62,10.23-8.06,8.95,11.47,4.63-3.67-10.98-14.02-14.88,11.67"/>
    <path class="cls-7" d="M47.6,624.71C-19.47,469.37,23.39,260.59,149.65,153.3c25.64-24.18,69.06-49.51,115.83-73.74,46.45-23.97,92.43-44.96,139.17-68.2,46.89,23.35,92.9,44.23,139.51,68.2,47.05,24.23,90.7,49.62,116.37,73.84,126.16,107.29,168.98,316.02,101.91,471.3-68.72,159.1-212.63,275.77-357.79,358.52-145.28-82.8-288.34-199.41-357.05-358.52Z"/>
    <path class="cls-13" d="M400.14,97.87c-.56-2.51.96-5.03,3.46-5.6,2.49-.58,4.96.99,5.55,3.51.56,2.51-.97,5.03-3.45,5.6-2.5.57-4.96-.99-5.55-3.51"/>
    <path class="cls-13" d="M420.2,105.2c-.51-2.52,1.12-4.92,3.6-5.39,2.49-.52,4.89,1.15,5.38,3.67.49,2.51-1.12,4.92-3.58,5.44-2.5.47-4.91-1.15-5.39-3.71"/>
    <path class="cls-13" d="M440.11,112.95c-.4-2.52,1.3-4.87,3.75-5.24,2.5-.42,4.83,1.25,5.22,3.77.41,2.51-1.28,4.87-3.74,5.28-2.5.37-4.83-1.31-5.23-3.82"/>
    <path class="cls-13" d="M459.88,121.06c-.33-2.46,1.43-4.76,3.89-5.08,2.49-.31,4.74,1.42,5.07,3.98.33,2.46-1.43,4.77-3.91,5.03-2.46.37-4.71-1.41-5.04-3.93"/>
    <path class="cls-13" d="M479.44,129.59c-.18-2.52,1.66-4.71,4.13-4.87,2.47-.16,4.62,1.67,4.8,4.18.18,2.46-1.66,4.66-4.12,4.81-2.48.21-4.62-1.67-4.81-4.13"/>
    <path class="cls-13" d="M498.78,138.59c-.05-2.46,1.9-4.56,4.34-4.61,2.46-.05,4.5,1.94,4.53,4.4.08,2.46-1.89,4.56-4.32,4.61-2.46.05-4.5-1.94-4.56-4.4"/>
    <path class="cls-13" d="M517.86,148.22c.03-2.46,2.03-4.45,4.48-4.4,2.41,0,4.4,2.04,4.33,4.5-.03,2.46-2.01,4.45-4.48,4.4-2.44,0-4.36-2.04-4.33-4.5"/>
    <path class="cls-13" d="M536.6,158.43c.15-2.41,2.25-4.29,4.66-4.13,2.41.15,4.24,2.25,4.07,4.71-.16,2.46-2.23,4.29-4.66,4.13-2.41-.15-4.23-2.25-4.07-4.71"/>
    <path class="cls-13" d="M554.97,169.32c.28-2.41,2.48-4.14,4.83-3.87,2.41.26,4.1,2.46,3.83,4.87-.3,2.46-2.47,4.19-4.85,3.87-2.38-.26-4.1-2.46-3.81-4.87"/>
    <path class="cls-13" d="M572.88,180.88c.46-2.41,2.73-3.98,5.07-3.51,2.36.42,3.89,2.72,3.46,5.08-.49,2.41-2.73,3.98-5.09,3.51-2.36-.42-3.89-2.72-3.43-5.08"/>
    <path class="cls-13" d="M590.24,193.29c.59-2.36,2.92-3.77,5.22-3.2,2.3.53,3.7,2.88,3.14,5.24-.56,2.3-2.92,3.77-5.22,3.19-2.32-.52-3.73-2.88-3.14-5.23"/>
    <path class="cls-13" d="M606.99,206.43c.79-2.31,3.21-3.51,5.47-2.73,2.22.79,3.43,3.19,2.66,5.5-.79,2.25-3.25,3.46-5.47,2.72-2.22-.79-3.4-3.24-2.65-5.49"/>
    <path class="cls-13" d="M622.98,220.55c.94-2.19,3.44-3.24,5.6-2.3,2.17.89,3.17,3.4,2.25,5.6-.93,2.19-3.46,3.24-5.6,2.3-2.2-.89-3.18-3.4-2.25-5.6"/>
    <path class="cls-13" d="M638.05,235.62c1.1-2.09,3.65-2.98,5.73-1.89,2.1,1.05,2.91,3.62,1.83,5.71-1.07,2.15-3.65,2.99-5.74,1.94-2.06-1.1-2.89-3.66-1.82-5.76"/>
    <path class="cls-13" d="M652.09,251.64c1.25-1.99,3.89-2.62,5.87-1.41,1.98,1.25,2.54,3.87,1.31,5.86-1.25,1.99-3.89,2.68-5.87,1.42-1.95-1.25-2.54-3.87-1.31-5.86"/>
    <path class="cls-13" d="M665,268.6c1.45-1.83,4.09-2.2,5.95-.73,1.79,1.41,2.07,4.03.64,5.91-1.45,1.83-4.11,2.2-5.93.79-1.82-1.46-2.12-4.13-.66-5.96"/>
    <path class="cls-13" d="M676.51,286.5c1.63-1.68,4.28-1.72,5.94-.1,1.66,1.62,1.69,4.29.03,5.91-1.63,1.72-4.28,1.78-5.94.15s-1.66-4.29-.02-5.97"/>
    <path class="cls-13" d="M686.48,305.34c1.79-1.47,4.45-1.25,5.91.52,1.48,1.78,1.17,4.4-.62,5.86-1.77,1.52-4.42,1.25-5.89-.47-1.48-1.78-1.21-4.45.59-5.91"/>
    <path class="cls-13" d="M695,324.92c1.87-1.31,4.5-.95,5.83.94,1.35,1.89.89,4.5-1.01,5.81-1.88,1.36-4.5.94-5.85-.95-1.31-1.83-.88-4.45,1.02-5.81"/>
    <path class="cls-13" d="M702.41,344.96c1.98-1.21,4.55-.58,5.72,1.31,1.21,1.99.59,4.56-1.41,5.76-1.97,1.2-4.53.62-5.75-1.36-1.2-1.94-.56-4.5,1.43-5.7"/>
    <path class="cls-13" d="M708.71,365.38c2.07-1.05,4.59-.21,5.6,1.83,1,2.04.14,4.5-1.93,5.55-2.09,1-4.57.16-5.6-1.83-.99-2.05-.13-4.56,1.93-5.55"/>
    <path class="cls-13" d="M713.74,386.1c2.14-.89,4.55.16,5.44,2.25.86,2.14-.18,4.5-2.33,5.39-2.14.89-4.56-.16-5.44-2.25-.83-2.1.18-4.5,2.33-5.39"/>
    <path class="cls-13" d="M717.55,407.14c2.2-.68,4.53.52,5.2,2.72.66,2.14-.56,4.45-2.79,5.13-2.19.68-4.52-.53-5.19-2.72-.64-2.15.59-4.45,2.79-5.13"/>
    <path class="cls-13" d="M720.02,428.33c2.25-.47,4.5.89,4.99,3.09.51,2.2-.89,4.45-3.14,4.97-2.25.47-4.48-.89-4.99-3.09-.51-2.25.91-4.45,3.14-4.97"/>
    <path class="cls-13" d="M721.23,449.69c2.3-.32,4.36,1.25,4.68,3.51.33,2.25-1.28,4.34-3.56,4.66-2.29.26-4.37-1.26-4.69-3.56-.32-2.2,1.28-4.3,3.57-4.61"/>
    <path class="cls-13" d="M721.08,471.04c2.3-.1,4.28,1.62,4.42,3.87.13,2.25-1.6,4.18-3.91,4.34-2.29.15-4.26-1.57-4.4-3.87-.17-2.25,1.59-4.13,3.89-4.34"/>
    <path class="cls-13" d="M719.61,492.39c2.3,0,4.15,1.89,4.12,4.19-.02,2.25-1.9,4.03-4.2,4.03-2.3-.05-4.16-1.88-4.13-4.13.02-2.25,1.91-4.09,4.21-4.09"/>
    <path class="cls-13" d="M716.93,513.6c2.3.26,3.97,2.25,3.74,4.5-.21,2.25-2.28,3.93-4.56,3.71-2.28-.26-3.97-2.25-3.75-4.5.25-2.25,2.29-3.93,4.57-3.71"/>
    <path class="cls-13" d="M712.96,534.63c2.25.42,3.77,2.51,3.4,4.76-.38,2.25-2.56,3.71-4.83,3.35-2.25-.41-3.78-2.51-3.4-4.76.41-2.25,2.54-3.76,4.83-3.35"/>
    <path class="cls-13" d="M707.78,555.41c2.22.52,3.61,2.77,3.05,4.97-.54,2.2-2.79,3.56-5.04,2.99-2.22-.58-3.61-2.77-3.05-4.97.53-2.19,2.81-3.56,5.04-2.98"/>
    <path class="cls-13" d="M701.47,575.88c2.2.68,3.4,3.03,2.71,5.18-.69,2.14-3.06,3.35-5.26,2.62-2.2-.73-3.4-3.04-2.69-5.24.69-2.14,3.04-3.3,5.24-2.56"/>
    <path class="cls-13" d="M694.08,595.97c2.15.84,3.16,3.3,2.33,5.39-.87,2.09-3.32,3.08-5.44,2.25-2.15-.89-3.17-3.3-2.33-5.44.85-2.09,3.3-3.09,5.44-2.19"/>
    <path class="cls-13" d="M685.72,615.65c2.07,1.09,2.87,3.61,1.82,5.6-1.03,2.04-3.56,2.83-5.6,1.73-2.08-1.05-2.89-3.56-1.85-5.6,1.05-2.04,3.56-2.77,5.63-1.72"/>
    <path class="cls-13" d="M676.33,634.91c1.97,1.21,2.61,3.82,1.44,5.76-1.2,1.93-3.78,2.56-5.76,1.31-2.02-1.2-2.63-3.77-1.45-5.76,1.2-1.94,3.78-2.51,5.77-1.31"/>
    <path class="cls-13" d="M665.95,653.65c1.94,1.36,2.41,3.93,1.13,5.86-1.31,1.83-3.91,2.3-5.84,1-1.94-1.36-2.42-3.93-1.1-5.86,1.28-1.83,3.91-2.3,5.81-1"/>
    <path class="cls-13" d="M654.79,671.97c1.82,1.47,2.14,4.08.69,5.91-1.44,1.78-4.1,2.04-5.92.58-1.82-1.47-2.14-4.14-.69-5.91,1.44-1.78,4.09-2.1,5.91-.58"/>
    <path class="cls-13" d="M642.76,689.66c1.74,1.62,1.94,4.24.38,5.97-1.53,1.73-4.21,1.89-5.98.32-1.74-1.62-1.9-4.29-.34-6.02,1.52-1.68,4.2-1.83,5.94-.26"/>
    <path class="cls-13" d="M630.05,706.93c1.63,1.67,1.61,4.4-.05,6.02-1.66,1.57-4.34,1.52-6.01-.21-1.64-1.67-1.61-4.34.05-5.97,1.68-1.63,4.37-1.52,6.01.15"/>
    <path class="cls-13" d="M616.55,723.57c1.55,1.78,1.42,4.5-.37,6.02-1.76,1.52-4.45,1.31-6.01-.47-1.55-1.78-1.37-4.5.37-6.02,1.78-1.52,4.45-1.31,6.01.47"/>
    <path class="cls-13" d="M602.44,739.69c1.49,1.83,1.23,4.56-.6,6.02-1.85,1.46-4.53,1.15-5.99-.68-1.5-1.89-1.27-4.56.59-6.07,1.82-1.41,4.5-1.15,6.01.73"/>
    <path class="cls-13" d="M587.97,755.49c1.43,1.89,1.07,4.61-.83,6.02-1.89,1.41-4.56.99-6.01-.89-1.45-1.94-1.07-4.66.8-6.07,1.91-1.42,4.6-1,6.03.94"/>
    <path class="cls-13" d="M573.21,771.04c1.35,1.99.84,4.66-1.15,5.97-1.95,1.36-4.63.79-5.97-1.2-1.35-1.99-.84-4.71,1.13-6.02,1.97-1.31,4.65-.79,5.99,1.25"/>
    <path class="cls-13" d="M558.11,786.22c1.28,2.09.67,4.76-1.34,6.02-2.03,1.25-4.72.63-6-1.47-1.26-2.09-.67-4.76,1.36-6.02,2.04-1.25,4.7-.58,5.98,1.47"/>
    <path class="cls-13" d="M542.71,801.13c1.2,2.1.51,4.77-1.58,5.97-2.1,1.2-4.75.47-5.95-1.67-1.23-2.1-.51-4.82,1.58-5.97,2.07-1.2,4.75-.47,5.95,1.67"/>
    <path class="cls-13" d="M526.99,815.74c1.15,2.14.36,4.81-1.79,5.97-2.15,1.1-4.76.26-5.91-1.94s-.36-4.87,1.79-5.97c2.14-1.1,4.79-.26,5.91,1.94"/>
    <path class="cls-13" d="M511.03,829.97c1.07,2.25.16,4.92-2.04,5.97-2.17,1.04-4.79.1-5.86-2.14-1.07-2.25-.19-4.87,2-5.92,2.18-1.1,4.83-.1,5.9,2.1"/>
    <path class="cls-13" d="M494.78,843.95c.99,2.3,0,4.92-2.22,5.91-2.26,1-4.88-.05-5.87-2.36-1.02-2.25,0-4.92,2.22-5.91,2.25-.94,4.88.1,5.87,2.36"/>
    <path class="cls-13" d="M478.24,857.61c.95,2.3-.15,4.92-2.47,5.86-2.28.89-4.87-.26-5.81-2.56-.92-2.36.18-4.97,2.46-5.86,2.29-.95,4.88.21,5.82,2.56"/>
    <path class="cls-13" d="M461.45,870.95c.8,2.36-.43,4.97-2.79,5.76-2.34.84-4.91-.48-5.71-2.88-.8-2.36.43-4.97,2.76-5.76,2.37-.79,4.93.47,5.74,2.88"/>
    <path class="cls-13" d="M444.34,883.83c.72,2.46-.61,5.03-3.01,5.75-2.38.73-4.89-.68-5.65-3.09-.74-2.45.59-5.02,2.98-5.75,2.41-.73,4.92.68,5.68,3.09"/>
    <path class="cls-13" d="M426.94,896.39c.61,2.51-.89,5.02-3.3,5.65-2.47.58-4.96-.94-5.55-3.45-.61-2.46.85-5.03,3.3-5.6,2.44-.57,4.93.95,5.55,3.4"/>
    <path class="cls-13" d="M400.11,910.21c-.48-2.56,1.12-5.03,3.61-5.5,2.5-.47,4.91,1.15,5.42,3.71.49,2.52-1.12,5.03-3.61,5.5-2.5.47-4.93-1.2-5.42-3.71"/>
    <path class="cls-13" d="M387.51,100.65c2.03,1.52,2.46,4.45.93,6.44-1.49,2.04-4.4,2.41-6.42.89-2.04-1.52-2.47-4.45-.97-6.44,1.53-1.99,4.42-2.46,6.46-.89"/>
    <path class="cls-13" d="M367.56,108.55c2.04,1.52,2.45,4.34.94,6.39-1.5,1.99-4.37,2.41-6.37.89-2.05-1.52-2.48-4.4-.97-6.38,1.5-1.99,4.37-2.41,6.4-.89"/>
    <path class="cls-13" d="M347.79,116.87c2,1.47,2.44,4.35.93,6.34-1.47,1.99-4.33,2.41-6.32.89-2.04-1.52-2.43-4.4-.96-6.33,1.5-2.04,4.34-2.41,6.36-.89"/>
    <path class="cls-13" d="M328.15,125.56c2,1.46,2.49,4.29,1.04,6.28-1.42,1.99-4.23,2.46-6.27.99-2.03-1.47-2.49-4.29-1.04-6.28,1.42-1.99,4.23-2.46,6.27-.99"/>
    <path class="cls-13" d="M308.73,134.77c2.04,1.47,2.57,4.24,1.16,6.23-1.4,2.04-4.19,2.51-6.23,1.1-2.03-1.42-2.54-4.19-1.15-6.23,1.4-1.99,4.19-2.52,6.22-1.1"/>
    <path class="cls-13" d="M289.68,144.61c2.04,1.42,2.55,4.19,1.15,6.17-1.39,2.05-4.15,2.52-6.16,1.1-2.03-1.41-2.54-4.18-1.15-6.17,1.37-1.99,4.13-2.46,6.16-1.1"/>
    <path class="cls-13" d="M270.89,155.03c2.05,1.36,2.61,4.13,1.27,6.12-1.35,1.99-4.09,2.57-6.11,1.2-2.05-1.41-2.61-4.08-1.26-6.12,1.34-2.04,4.07-2.57,6.1-1.2"/>
    <path class="cls-13" d="M252.51,166.12c2.04,1.31,2.66,4.03,1.34,6.07-1.28,1.99-3.99,2.62-6.06,1.25-2.03-1.31-2.64-4.03-1.34-6.02,1.28-2.04,4.02-2.62,6.06-1.31"/>
    <path class="cls-13" d="M234.52,177.9c2.07,1.25,2.79,3.93,1.56,5.97-1.23,2.04-3.91,2.72-5.98,1.52-2.09-1.25-2.76-3.93-1.56-6.02,1.24-1.99,3.89-2.66,5.98-1.46"/>
    <path class="cls-13" d="M217.15,190.56c2.09,1.2,2.81,3.82,1.63,5.86-1.17,2.09-3.81,2.77-5.9,1.57-2.08-1.2-2.84-3.82-1.63-5.86,1.16-2.09,3.81-2.83,5.9-1.57"/>
    <path class="cls-13" d="M200.33,203.96c2.1,1.04,3,3.66,1.92,5.75-1.07,2.1-3.64,2.93-5.78,1.89-2.14-1.09-3.01-3.66-1.94-5.81,1.07-2.1,3.65-2.93,5.8-1.83"/>
    <path class="cls-13" d="M184.32,218.3c2.17,1,3.12,3.56,2.12,5.71-.99,2.09-3.53,3.04-5.68,1.99-2.17-1-3.11-3.51-2.12-5.65.97-2.15,3.51-3.04,5.68-2.05"/>
    <path class="cls-13" d="M169.25,233.64c2.19.89,3.21,3.4,2.3,5.54-.91,2.15-3.43,3.15-5.6,2.25-2.17-.94-3.2-3.46-2.3-5.6.92-2.14,3.43-3.14,5.6-2.19"/>
    <path class="cls-13" d="M155.2,249.86c2.23.84,3.38,3.24,2.58,5.44-.81,2.19-3.24,3.3-5.47,2.51-2.2-.84-3.35-3.24-2.55-5.44.79-2.2,3.21-3.3,5.44-2.51"/>
    <path class="cls-13" d="M142.31,267.14c2.25.62,3.58,2.98,2.93,5.23-.65,2.19-3.01,3.51-5.26,2.83-2.25-.63-3.56-2.98-2.92-5.23.64-2.2,3-3.51,5.24-2.83"/>
    <path class="cls-13" d="M130.83,285.3c2.28.52,3.74,2.77,3.23,5.03-.47,2.25-2.73,3.66-5.01,3.13-2.28-.46-3.72-2.72-3.23-4.97.47-2.25,2.73-3.67,5.01-3.19"/>
    <path class="cls-13" d="M120.9,304.4c2.3.32,3.91,2.46,3.56,4.71-.32,2.3-2.46,3.87-4.76,3.56-2.3-.37-3.91-2.51-3.57-4.76.33-2.31,2.47-3.88,4.77-3.51"/>
    <path class="cls-13" d="M112.5,324.13c2.3.26,3.97,2.36,3.72,4.61-.26,2.3-2.36,3.93-4.66,3.67-2.3-.26-3.97-2.36-3.7-4.61.25-2.3,2.33-3.93,4.64-3.67"/>
    <path class="cls-13" d="M105.2,344.33c2.3.15,4.05,2.2,3.86,4.45-.18,2.25-2.2,3.98-4.5,3.82-2.33-.21-4.05-2.2-3.86-4.5.15-2.25,2.19-3.98,4.5-3.77"/>
    <path class="cls-13" d="M99.01,364.9c2.32.05,4.14,1.99,4.09,4.24-.08,2.3-2.02,4.08-4.32,3.98-2.3-.05-4.12-1.94-4.07-4.24.08-2.25,2-4.08,4.3-3.98"/>
    <path class="cls-13" d="M94.13,385.78c2.3,0,4.18,1.83,4.18,4.14.03,2.25-1.85,4.08-4.15,4.08s-4.19-1.83-4.19-4.08c-.02-2.3,1.86-4.14,4.16-4.14"/>
    <path class="cls-13" d="M90.46,406.93c2.3-.15,4.25,1.62,4.4,3.87.1,2.3-1.66,4.19-3.98,4.34-2.3.1-4.25-1.62-4.36-3.93-.14-2.25,1.63-4.19,3.94-4.29"/>
    <path class="cls-13" d="M88.15,428.23c2.3-.15,4.31,1.47,4.5,3.77.18,2.25-1.51,4.24-3.81,4.45-2.28.16-4.32-1.52-4.5-3.77-.2-2.25,1.49-4.23,3.81-4.45"/>
    <path class="cls-13" d="M87.09,449.69c2.29-.37,4.37,1.25,4.7,3.51.29,2.25-1.28,4.29-3.6,4.6-2.28.32-4.36-1.25-4.68-3.5-.3-2.25,1.31-4.35,3.58-4.61"/>
    <path class="cls-13" d="M87.42,471.09c2.28-.37,4.42,1.1,4.8,3.35.38,2.25-1.15,4.34-3.43,4.76-2.25.37-4.4-1.15-4.8-3.4-.38-2.19,1.15-4.34,3.43-4.71"/>
    <path class="cls-13" d="M89.06,492.45c2.25-.48,4.45.99,4.91,3.24.46,2.19-1.02,4.34-3.27,4.81-2.25.42-4.45-1-4.89-3.19-.46-2.25,1.01-4.4,3.26-4.87"/>
    <path class="cls-13" d="M91.9,513.7c2.22-.58,4.52.79,5.08,2.93.56,2.2-.81,4.45-3.04,5.03-2.25.57-4.5-.73-5.06-2.93-.56-2.19.8-4.45,3.02-5.02"/>
    <path class="cls-13" d="M96.04,534.74c2.22-.68,4.53.58,5.14,2.77.66,2.15-.64,4.45-2.87,5.08-2.19.63-4.5-.57-5.14-2.77-.61-2.2.64-4.45,2.87-5.08"/>
    <path class="cls-13" d="M101.39,555.46c2.19-.73,4.55.47,5.24,2.61.69,2.15-.51,4.45-2.7,5.19-2.2.73-4.53-.42-5.25-2.62-.69-2.15.51-4.45,2.71-5.18"/>
    <path class="cls-13" d="M107.84,575.88c2.16-.79,4.56.31,5.33,2.46.79,2.15-.34,4.5-2.52,5.28s-4.56-.31-5.34-2.46c-.77-2.14.35-4.5,2.52-5.28"/>
    <path class="cls-13" d="M115.4,595.92c2.14-.89,4.58.15,5.42,2.25.85,2.1-.22,4.56-2.37,5.39-2.13.84-4.58-.15-5.4-2.3-.87-2.1.18-4.5,2.36-5.34"/>
    <path class="cls-13" d="M123.9,615.55c2.11-.95,4.61-.06,5.55,1.99.96,2.09.03,4.55-2.09,5.5-2.12.99-4.61.1-5.55-1.99-.97-2.05-.03-4.56,2.09-5.5"/>
    <path class="cls-13" d="M133.42,634.71c2.1-1,4.62-.21,5.64,1.83,1.01,2.04.16,4.55-1.94,5.6-2.09,1.05-4.6.21-5.62-1.89-1.02-1.99-.16-4.5,1.92-5.54"/>
    <path class="cls-13" d="M143.93,653.34c2.08-1.05,4.6-.26,5.67,1.78,1.05,2.04.21,4.56-1.84,5.6-2.07,1.09-4.62.31-5.69-1.73-1.05-2.04-.21-4.61,1.86-5.65"/>
    <path class="cls-13" d="M155.21,671.5c2.04-1.15,4.65-.42,5.74,1.62,1.15,1.99.4,4.55-1.66,5.71-2.04,1.09-4.61.42-5.74-1.57-1.13-2.05-.37-4.61,1.66-5.76"/>
    <path class="cls-13" d="M167.36,689.13c2.04-1.15,4.64-.52,5.79,1.47,1.18,2.05.45,4.61-1.58,5.81-2.04,1.15-4.62.48-5.8-1.51-1.15-1.99-.44-4.56,1.59-5.76"/>
    <path class="cls-13" d="M180.19,706.25c2-1.25,4.63-.68,5.86,1.31,1.25,1.98.62,4.55-1.38,5.81-2.02,1.25-4.63.68-5.88-1.31-1.23-1.94-.61-4.56,1.4-5.81"/>
    <path class="cls-13" d="M193.77,722.78c2.01-1.31,4.64-.78,5.93,1.21,1.25,1.93.67,4.55-1.31,5.86-1.99,1.31-4.65.79-5.93-1.2-1.25-1.94-.66-4.61,1.31-5.86"/>
    <path class="cls-13" d="M208.01,738.75c2-1.25,4.66-.73,5.94,1.2,1.27,1.99.66,4.66-1.34,5.91-1.99,1.31-4.66.79-5.93-1.2-1.28-1.99-.7-4.61,1.32-5.91"/>
    <path class="cls-13" d="M222.57,754.45c2.02-1.36,4.7-.79,5.98,1.2,1.28,1.94.66,4.66-1.35,5.91-2.01,1.31-4.69.79-5.97-1.2-1.3-1.99-.67-4.66,1.33-5.91"/>
    <path class="cls-13" d="M237.41,769.84c2.01-1.36,4.69-.84,6.02,1.15,1.32,1.94.76,4.61-1.26,5.97-1.97,1.36-4.68.84-6.01-1.15-1.31-1.94-.77-4.66,1.24-5.97"/>
    <path class="cls-13" d="M252.6,784.86c2.01-1.31,4.7-.79,6.05,1.2,1.34,1.94.74,4.66-1.27,6.02-2,1.31-4.71.84-6.05-1.15-1.32-1.99-.76-4.71,1.26-6.07"/>
    <path class="cls-13" d="M268.09,799.62c2.04-1.36,4.77-.79,6.08,1.15,1.34,2.04.77,4.76-1.25,6.07-2.04,1.36-4.75.84-6.09-1.15-1.35-1.99-.78-4.66,1.26-6.07"/>
    <path class="cls-13" d="M283.87,814.06c2.07-1.36,4.8-.84,6.14,1.15,1.34,2.05.74,4.77-1.28,6.13-2.04,1.36-4.8.84-6.11-1.15-1.35-2.04-.79-4.71,1.25-6.13"/>
    <path class="cls-13" d="M299.93,828.19c2.07-1.36,4.83-.84,6.16,1.2,1.38,1.99.79,4.71-1.28,6.13-2.06,1.36-4.83.84-6.16-1.15-1.34-2.04-.77-4.81,1.28-6.18"/>
    <path class="cls-13" d="M316.25,842.01c2.07-1.36,4.86-.84,6.22,1.2,1.38,2.04.79,4.76-1.28,6.17-2.09,1.42-4.85.84-6.21-1.2-1.36-2.04-.77-4.76,1.28-6.17"/>
    <path class="cls-13" d="M332.86,855.52c2.09-1.42,4.88-.89,6.25,1.15,1.36,2.04.8,4.87-1.3,6.23-2.08,1.41-4.87.89-6.26-1.16-1.36-2.04-.77-4.87,1.31-6.22"/>
    <path class="cls-13" d="M349.67,868.65c2.07-1.41,4.91-.94,6.33,1.1,1.42,2.04.88,4.87-1.2,6.28-2.07,1.47-4.91.99-6.3-1.05-1.42-2.04-.88-4.87,1.17-6.33"/>
    <path class="cls-13" d="M366.85,881.42c2.09-1.47,4.93-.95,6.37,1.1,1.43,1.99.89,4.87-1.2,6.33-2.1,1.41-4.93.94-6.37-1.1-1.43-2.05-.89-4.87,1.2-6.33"/>
    <path class="cls-13" d="M384.27,893.77c2.08-1.47,4.95-1.04,6.42,1s.99,4.87-1.07,6.38c-2.1,1.52-4.99,1.1-6.45-.94-1.48-2.05-.97-4.92,1.1-6.44"/>
    <path class="cls-13" d="M410.68,106.24v372.85h303.87v11.83H95.59v-11.83h303.2V106.24h11.89"/>
    <path class="cls-13" d="M467.45,368.3h149.32v-9.37h-149.32v9.37"/>
    <path class="cls-13" d="M468.23,455.65h148.15v-6.65h-148.15v6.65"/>
    <path class="cls-3" d="M468.23,461.1h147.76"/>
    <path class="cls-13" d="M468.6,472.4h147.38v-3.51h-147.38v3.51"/>
    <path class="cls-13" d="M534.23,216.68c0-4.24,3.43-7.7,7.68-7.7s7.69,3.46,7.69,7.7-3.46,7.7-7.69,7.7-7.68-3.4-7.68-7.7"/>
    <path class="cls-13" d="M615.21,481.77h-146.59v-200.4c49.12-21.04,46.79-48.31,73.29-48.31s24.18,27.27,73.3,48.31v200.4ZM622.55,489.57v-212.71c-54.05-23.13-51.47-50.03-80.63-50.03s-26.58,26.91-80.65,50.03v212.71h161.29"/>
    <path class="cls-13" d="M483.64,447.33v-79.45h8.02l12.22,9.05,12.37-9.05h13.05l12.6,9.21,12.58-9.21h13.06l12.4,9.11,12.44-9.11h7.79v81.12h-8.01l-11.91-8.79-12.15,8.79h-13.91l-12.3-8.85-12.3,8.85h-13.91l-12.57-9.05-12.43,9.05h-7.05v-1.67ZM489.14,372.91v14.81l10.08-7.38-10.08-7.43ZM489.14,394.58v.62l14.07,10.15,15.03-10.94-14.35-10.62-14.75,10.78ZM489.14,402.01v13.66l9.41-6.85-9.41-6.8ZM489.14,422.47v.57l13.97,10.1,14.47-10.57-14.34-10.36-14.09,10.26ZM489.14,429.86v13.5l9.31-6.81-9.31-6.69ZM507.8,436.55l12.05,8.69v-17.53l-12.05,8.84ZM537.21,436.76l-11.84-8.58v17.12l11.84-8.53ZM507.91,408.76l11.94,8.64v-17.32l-11.94,8.69ZM526.95,422.53l14.96,10.83,14.68-10.62-14.87-10.99-14.76,10.78ZM546.62,436.76l11.84,8.53v-17.12l-11.84,8.58ZM594.67,394.58l-14.71-10.78-14.44,10.57,15.08,10.99,14.07-10.15v-.62ZM575.3,380.39l-11.35-8.27v16.54l11.35-8.26ZM584.62,380.39l10.05,7.32v-14.65l-10.05,7.33ZM594.67,422.47l-14.09-10.26-14.65,10.57,14.42,10.62,14.33-10.36v-.57ZM575.92,408.76l-11.96-8.69v17.32l11.96-8.64ZM556.16,394.37l-14.25-10.41-14.37,10.46,14.17,10.47,14.44-10.52ZM537.24,380.55l-11.87-8.69v17.32l11.87-8.64ZM546.59,380.55l11.87,8.64v-17.32l-11.87,8.69ZM585.29,408.81l9.38,6.85v-13.66l-9.38,6.8ZM575.64,436.81l-11.68-8.64v17.06l11.68-8.42ZM537.08,408.29l-11.71-8.58v17.16l11.71-8.58ZM508.54,380.39l11.31,8.37v-16.65l-11.31,8.27ZM546.39,408.34l12.07,8.89v-17.69l-12.07,8.8ZM584.97,436.86l9.7,7.12v-14.13l-9.7,7.01"/>
    <path class="cls-13" d="M558.86,264.36c.53.21,5.42-10.36,7.98-13.45,3.08-3.61-9.64-1.78-11.93,2.36l-9.64-14.45-10.53,14.45c-2.2-4.18-15.5-5.55-11.94-2.36,5.77,5.18,4.91,14.29,6.03,13.72,11.25-5.71,24.68-2.62,30.02-.27"/>
    <path class="cls-13" d="M552.6,272.21c-.59,1.99-4.37,1.41-4.67-.84-.26-2.25,5.47-1.72,4.67.84M544.6,280.37c-1.54.42-3.51-.37-2.95-1.15.59-.73,1.4-1.36,1.99-3.09.59-1.78,2.3.95,2.74,2.36.37,1.36-.22,1.51-1.78,1.88M546.39,283.73c-.81,1.94-2.1.73-3.73,1.36-1,.42-1.12-.52-1.56-1.2-1.17-1.62,5.66-1.36,5.29-.15M549.67,277.5c.4-1.15,2.55,2.57,1.37,2.72-3.11.42-1.77-1.57-1.37-2.72M540.51,272.21c-.26,2.25-4.42,2.72-5.47.99-1.95-3.3,5.77-3.24,5.47-.99M556.75,271.11s.97-4.82-1.39-5.08c-7.43.26-17.33-.58-21.28.52-3.95,1.15-6.84,4.03-1.99,11.09,3.76,5.5,2.3,9.79,10.15,12.67,2.33.89,4.56.1,5.68-.48,1.15-.57,4.85-3.19,7.43-6.02,1.47-1.57-.03-4.4,1.69-6.44,4.84-5.86-.3-6.28-.3-6.28"/>
    <path class="cls-13" d="M502.5,355.06h-15.56s-.59-17.16,10.89-30.41c4.11-4.76,14.34,11.15,29.61,14.39,2.74.63-8.16,16.02-8.16,16.02h-10.35c-5.25-3.93-17.82-12.87-15.97-9.73,2.51,4.29,9.54,9.73,9.54,9.73"/>
    <path class="cls-13" d="M577.98,355.06h18.7s2.5-13.03-9-26.33c-5.07-5.81-5.29,4.14-19.3,6.07-3.67.52-.18,20.05-.18,20.05,0,0,24.31-12.66,22.45-9.52-2.54,4.29-12.66,9.73-12.66,9.73"/>
    <path class="cls-13" d="M550.25,345.22c-.77-3.14-7.61-2.41-7.61,0,0,3.87,8.38,3.09,7.61,0"/>
    <path class="cls-13" d="M540.12,355.06c3.62-.89,12.68,0,12.68,0,0,0,.21-6.02-5.65-6.02-7.43,0-7.8,6.23-7.03,6.02"/>
    <path class="cls-13" d="M564.1,355.06h-7.21c-.19-7.22.13-5.55-1.91-9.37-.61-1.15,6.97-5.02,7.18-3.5,0,0,.17,6.64,1.94,12.87"/>
    <path class="cls-13" d="M526.09,355.06h11.1c.21-7.22-1.46-5.55.58-9.37.64-1.15-6.97-5.02-7.16-3.5,0,0-2.76,6.64-4.53,12.87"/>
    <path class="cls-13" d="M548.51,317.07c0,2.35-6.24,1.94-6.06,0,.18-1.78,6.06-2.36,6.06,0M547.13,308.37c0,.95-.96,1.68-2.12,1.68s-2.13-.73-2.13-1.68.93-1.62,2.13-1.62,2.12.68,2.12,1.62M544.13,322.87c1.23,0,2.25.53,2.25,1.1,0,.63-1.03,1.05-2.25,1.05s-2.25-.42-2.25-1.05c0-.57,1-1.1,2.25-1.1M570.91,298.33c-12.94,3.35-18.31,7.22-21.23,6.07-2.07-.84-4.45-1.46,12.27-6.44,9.75-2.93.77-15.23-2.55-14.87-1.59.26,2.93,11.72-15.38,14.08-25.72-4.29-14.4-13.66-16.01-13.82-3.32-.42-14.78,8.95-3.89,12.82,16.44,5.86,14.42,6.65,12.87,8.22-2.25,2.25-7.8,3.87-16.6-6.28-8.75-10.1-23.76,22.46-22.58,22.82,1.15.42,5.47.79,5.47.79-5.09-2.52-.19-3.67,1.93-4.66,7.61-3.51,32.18,11.25,31.97,9.31-1.55-15.17.6-17.9,1.96-15.75,1.36,2.15,3.3,14.4.59,18.53-2.73,4.09-8.21.37-16.96-5.08-8.76-5.5-14.82-3.87-18.71-2.93-3.91.95,35.27,20.68,40.33,19.11,9.35,1.94,35.67-15.39,31.78-16.38-3.91-1-.77-2.51-10.31,2.36-9.23,4.66-6.36,4.08-10.94,5.23-4.34,1.15-8.54,2.15-11.49.84-3.01-1.46,11.17-2.25,15.78-5.28,11.52-7.64,20.48-7.07,27.87-5.65,2.12.37-5.66-25.75-16.18-23.03"/>
    <path class="cls-13" d="M266.3,197.42c0-1.78,1.44-3.19,3.22-3.19s3.17,1.42,3.17,3.19-1.41,3.19-3.17,3.19-3.22-1.41-3.22-3.19"/>
    <path class="cls-2" d="M266.3,197.42c0-1.78,1.44-3.19,3.22-3.19s3.17,1.42,3.17,3.19-1.41,3.19-3.17,3.19-3.22-1.41-3.22-3.19Z"/>
    <path class="cls-13" d="M279.03,209.88c0-1.78,1.46-3.19,3.22-3.19s3.19,1.41,3.19,3.19-1.43,3.24-3.19,3.24-3.22-1.46-3.22-3.24"/>
    <path class="cls-2" d="M279.03,209.88c0-1.78,1.46-3.19,3.22-3.19s3.19,1.41,3.19,3.19-1.43,3.24-3.19,3.24-3.22-1.46-3.22-3.24Z"/>
    <path class="cls-13" d="M253.57,209.88c0-1.78,1.46-3.19,3.19-3.19s3.22,1.41,3.22,3.19-1.43,3.24-3.22,3.24-3.19-1.46-3.19-3.24"/>
    <path class="cls-2" d="M253.57,209.88c0-1.78,1.46-3.19,3.19-3.19s3.22,1.41,3.22,3.19-1.43,3.24-3.22,3.24-3.19-1.46-3.19-3.24Z"/>
    <path class="cls-13" d="M266.3,209.88c0-1.78,1.44-3.19,3.22-3.19s3.17,1.41,3.17,3.19-1.41,3.24-3.17,3.24-3.22-1.46-3.22-3.24"/>
    <path class="cls-2" d="M266.3,209.88c0-1.78,1.44-3.19,3.22-3.19s3.17,1.41,3.17,3.19-1.41,3.24-3.17,3.24-3.22-1.46-3.22-3.24Z"/>
    <path class="cls-13" d="M321.22,241.65c-4.14-7.33-12.3.05-12.5-4.24-1.02-26.01-28.02-14.03-32.66-12.45-1.02-3.77-5.26-8.27-8.36-8.27s-7.82,4.5-8.84,8.27c-4.64-1.58-31.65-13.56-32.68,12.45-.18,4.29-8.36-3.09-12.48,4.24-2.87,5.13,12.48-5.13,15.06,23.92h77.4c2.56-29.05,17.93-18.79,15.06-23.92M263.59,237.93c1.43,4.82.36,4.66-.1,8.95-3.61,0-3.64.58-5.76-.15-2.47-.84-2.63-3.98-5.19-4.14-2.25-.1-3.89,2.46-5.13,2.67-6.19,1.05-16.02-1.72-14.48-9.16,3.66-17.84,29.3-2.88,30.66,1.83M271.31,228.35c0,3.3-1.71,5.97-3.86,5.97s-3.86-2.67-3.86-5.97,1.75-6.02,3.86-6.02,3.86,2.72,3.86,6.02M288.11,245.26c-1.23-.21-2.89-2.77-5.14-2.67-2.58.16-2.73,3.3-5.17,4.14-2.15.73-2.17.15-5.76.15-.48-4.29-1.53-4.13-.14-8.95,1.4-4.71,27.05-19.67,30.69-1.83,1.53,7.43-8.29,10.21-14.48,9.16M304.57,248.87c-4.42.89-3.32,10.62-3.32,10.62h-65.76s1.1-9.74-3.32-10.62c0,0,7.03,1.42,7.29,4.82h7.77c1.51-1.68,4.72-2.15,5.47-1.94.77.16,3.1,1.1,4.1,2.72h23.16c.98-1.62,3.35-2.56,4.1-2.72.74-.21,3.99.26,5.47,1.94h7.78c.26-3.4,7.28-4.82,7.28-4.82"/>
    <path class="cls-6" d="M306.16,265.57c2.58-29.05,17.93-18.79,15.06-23.92-4.13-7.33-12.33.05-12.48-4.24-1.02-25.96-28.03-14.03-32.68-12.45-1.04-3.72-5.27-8.22-8.36-8.22s-7.82,4.5-8.83,8.22c-4.65-1.58-31.65-13.51-32.7,12.45-.15,4.29-8.36-3.09-12.46,4.24-2.91,5.13,12.46-5.13,15.04,23.92h77.41ZM263.61,228.35c0-3.3,1.71-5.97,3.86-5.97s3.86,2.66,3.86,5.97-1.71,5.97-3.86,5.97-3.86-2.67-3.86-5.97ZM263.47,246.88c.48-4.29,1.55-4.13.13-8.95-1.39-4.71-27.01-19.67-30.69-1.88-1.53,7.48,8.31,10.26,14.48,9.21,1.25-.21,2.89-2.77,5.14-2.67,2.58.16,2.73,3.3,5.21,4.14,2.1.73,2.13.15,5.73.15ZM272.02,246.88c-.46-4.29-1.51-4.13-.11-8.95,1.39-4.71,27.01-19.67,30.69-1.88,1.53,7.48-8.31,10.26-14.48,9.21-1.25-.21-2.89-2.77-5.14-2.67-2.58.16-2.73,3.3-5.18,4.14-2.13.73-2.16.15-5.78.15ZM235.5,259.49s1.1-9.74-3.32-10.62c0,0,7.01,1.47,7.29,4.87h7.77c1.47-1.73,4.69-2.15,5.46-1.99.76.11,3.09,1.1,4.11,2.72h23.12c1.02-1.62,3.35-2.61,4.14-2.72.74-.15,3.96.26,5.45,1.99h7.78c.27-3.4,7.28-4.87,7.28-4.87-4.42.89-3.32,10.62-3.32,10.62h-65.75Z"/>
    <path class="cls-13" d="M212.9,423.26c5.91,1.46,6.58-.37,9.13-.37s-4.66,10.15-5.63,10.94c-1,.73,15.08,1.46,4.66,15.75-8.39,11.51,6.83-16.18-10.51-5.24-4.68,3.51-3.51,10.89-3.51,10.89-9.38-4.08-5.65-13.45-4.88-13.24.79.21-6.78,5.44-6.61,12.25.18,8.79-7.36-13.66-1.59-15.18-6.03.79-9.76,11.51-10.32,9.94-2.15-6.02,13.64-20.46,12.49-16.17-1.24,1.57-1.21,4.29,2.11,4.66,3.32.42,1.96-5.23,1.96-5.23l5.66,1.94s3.7-9.37,7.03-10.94"/>
    <path class="cls-2" d="M212.9,423.26c5.91,1.46,6.58-.37,9.13-.37s-4.66,10.15-5.63,10.94c-1,.73,15.08,1.46,4.66,15.75-8.39,11.51,6.83-16.18-10.51-5.24-4.68,3.51-3.51,10.89-3.51,10.89-9.38-4.08-5.65-13.45-4.88-13.24.79.21-6.78,5.44-6.61,12.25.18,8.79-7.36-13.66-1.59-15.18-6.03.79-9.76,11.51-10.32,9.94-2.15-6.02,13.64-20.46,12.49-16.17-1.24,1.57-1.21,4.29,2.11,4.66,3.32.42,1.96-5.23,1.96-5.23l5.66,1.94s3.7-9.37,7.03-10.94Z"/>
    <path class="cls-13" d="M251.88,384.69c-.38,4.65-4.29,12.3-8,13.66-3.71,1.36-2.81-1.52-.18-3.14,6.4-3.87,5.63-7.59,8.18-10.52"/>
    <path class="cls-2" d="M251.88,384.69c-.38,4.65-4.29,12.3-8,13.66-3.71,1.36-2.81-1.52-.18-3.14,6.4-3.87,5.63-7.59,8.18-10.52Z"/>
    <path class="cls-13" d="M293.78,323.29c28.65-8.95,24.8-23.76,41.33-25.54,7.09-.73,27.08-8.16,33.73,53.8,3.53,33.29,16.37,63.54,22.99,74.42-12.48-10.88-19.1-34.27-24.57-58.04-9.21-40.19-3.89-33.91-12.87-54.17-3.14-7.12-4.24-6.22-8.18-8.58-14.81-9.01-31.97,23.39-47.56,18.89-.9-.26-5.09-.73-4.88-.79"/>
    <path class="cls-2" d="M293.78,323.29c28.65-8.95,24.8-23.76,41.33-25.54,7.09-.73,27.08-8.16,33.73,53.8,3.53,33.29,16.37,63.54,22.99,74.42-12.48-10.88-19.1-34.27-24.57-58.04-9.21-40.19-3.89-33.91-12.87-54.17-3.14-7.12-4.24-6.22-8.18-8.58-14.81-9.01-31.97,23.39-47.56,18.89-.9-.26-5.09-.73-4.88-.79Z"/>
    <path class="cls-13" d="M290.62,334.23c-.53.63-1.33,1.15-2.48,1.52-1.91.73-2.37,0-2.23-1.52h4.71ZM275.54,334.23c-.03.16-.05.26-.08.37-.66,2.99-.13,1.99.51-.37h3.13c-.13,1.99-.47,3.51-1.49,3.46-2.15-.05-3.3-1.57-3.99-3.46h1.93ZM265.28,334.23c-.44.32-.94.73-1.45,1.47-1.54,2.09-.97,3.46-.97,3.46,0,0-.05-.21-.34-.63-.84-1.2-2.87-2.41-4.37-4.29h7.13ZM252.86,334.23c.05.1.11.26.17.37-.25,1-1.86,2.51-3.3,2.51-1.66,0-3.27-1.2-4.29-2.88h7.42ZM172.47,334.23c-3.66,7.54-4.25,10.94-13.82,36.38-8.33,22.24-24.79,50.87-42.77,58.57,14.4-10.94,36.26-46.9,44.67-79.29,1.53-5.86,3.12-11.04,4.71-15.65h7.21"/>
    <path class="cls-13" d="M278.12,322.35c-.28,2.04,1.71,2.62,2.99.37.06-.16.14-.26.16-.37h-3.15ZM258.6,322.35c-.1.15-.18.26-.3.37-.96.79-3.32.21-3.89,1.15-.23.37-2.54-2.14-5.09,0-.88-.26-3.4-.95-4.2-1.52h-24.93c5.31,4.19,10.1,5.91,18.81,4.66,0,0,2.46.63,1.15,2.72-1.32,2.09,1.31-2.67,2.59-3.4,1.32-.73,5.55-3.35,2.68.68-1.6,2.25-1.25,5.13,0,7.22h7.43c-2.47-5.23-.79-7.64-.99-9.58-.28-2.3,1.28,1.67,2.84,1.42,1.59-.26,3.14-5.66,2.89-1.52-.26,4.13-1.05,6.91-.54,8.01.3.63.67,1.15,1.07,1.67h7.13c1.31-.94,2.12-.68,1.92-3.19-.26-3.4.38-4.34,2.23-4.81,1.83-.47,1.93-1.47,2.73.84.45,1.41.51,4.66,1.45,7.17h1.93c1.56-6.7,3.24-8.22,4.4-8.79.81-.37,3.76-2.41,5.14-3.09h.79c-.02.15-.11.32-.27.57-1.56,2.3,2.92,6.02,2.35,4.87-.59-1.2,1.15-2.72,1.38-3.93.05-.32.13-.89.21-1.52h.07c.03.84.09,1.52.09,1.52,0,0,1.95,1.31,1.95,5.44,0,2.51-.23,3.98-1.03,4.92h-4.71c.06-.79.29-1.78.57-2.93.77-3.4-1.32-6.75-2.87-5.97-1.59.79-2.87-.53-3.91,1.52-.61,1.15-.41,4.65-.59,7.38h-3.16c.89-3.19,1.97-8.95.69-10.94-.24-.37-.46-.68-.64-.94h-2.28c-.21,1.05-.23,2.51-.4,3.46-.37,2.36-3.69-1.94-4.28-1.15-.38.47-.81-1.2-1.07-2.3h-.7c-.85.63-2.84.84-3.3,1.72-.59,1.15-1.95,2.93-.77,4.5,1.18,1.52-2.14-.21-2.53.94-.25.79-.87-3.71-1.08-7.17h-.97ZM178.62,322.35c-2.93,5.55-4.75,9-6.14,11.88h-7.21c1.58-4.5,3.2-8.42,4.81-11.88h8.53"/>
    <path class="cls-13" d="M251.37,313.71c.61,2.72-.49,4.14-2.01,5.7l-4.34,1.63c1.34-.68,2.74-3.67,4.05-4.34-.1-.42,1.15-3.51,2.3-2.99M285.86,322.35c.03-.21-.29-.15-.77.05l.77-.05ZM275.97,322.35c-1.44-1.89-1.98-1.25-2.25,0h2.25ZM267.93,322.35c-.15-.62-.26-1.05-.26-.62,0,.26-.17.47-.41.62h.66ZM259.57,322.35c-.1-1.67-.1-3.14.11-3.56.51-1.05-.21,2.36-1.1,3.61l.99-.05ZM216.72,310.52c7.56,7.28,14.93,14.5,25.49,9.68,4.26-1.94,4.01-6.65,3.3-9.74l5.5.05c.9,1,1.66,3.24,1.85,3.98.15.68,1.23-2.51,2.7-3.98h19.48c.64.84.54,2.41.8,4.76,1-2.51,3.73-.15,3.91-1.15.18-.99,1.15-1.36,0-2.93-.85-1.15-1.17-.53-1.61-.68h4.99c.05,0,.08.05.13.1,1.21.95,2.5,1.42,2.93-.1h.85c-.54,3.56-.51,12.3,13.55,9.63.66-.1.92-.15.92-.15,0,.05-9.05,1.62-11.04,0-.74-.62-.85,1.05-.85,2.41l-.08-.05c.18-1.57.18-3.51-1.2-2.98-1.97.78-8.21-4.24-7.62-3.09.56,1.15,1.85,3.5.56,6.12l-3.16-.05c.05-.37.19-.89.46-1.42,1.55-3.08-.97-7.22-1.36-5.23-.38,1.94-5.85,7.22-5.44,5.44.38-1.78-2.36-5.44-2.36-5.44,0,0-3.89,4.66-4.48,2.72-.58-1.94-2.34-2.36-3.7-2.36s.38-2.93-.77-2.93-4.7-2.72-3.52.57c1.15,3.35-2.92,7.43-2.36,5.86.59-1.57-1.55-6.02-1.74-3.09-.18,2.88-2.92,4.66-7.21,5.24-.92.15-.95.37-.54.62h-24.9c-3.61-2.83-7.47-6.85-12.97-11.83h9.49ZM187.14,310.52c-3.24,3.04-5.86,6.85-7.28,9.52-.44.84-.83,1.57-1.23,2.3h-8.52c2.3-4.87,4.63-8.79,6.94-11.88l10.1.05"/>
    <path class="cls-13" d="M177.04,310.52c8.95-12.04,17.33-11.78,21.71-11.31,6.96.73,12.5,6.02,17.98,11.31h-9.49c-.91-.84-1.91-1.72-2.92-2.67-5.82-5.08-12.22-2.04-17.18,2.67h-10.1ZM291.29,298.64c-.03.1-.03.15-.05.26,0,0-.11-.1-.29-.26h.34ZM264.98,298.64c1.13,1.72,1.86,2.77,2.3,1.46.17-.52.33-.99.51-1.46h7.21c0,.21.03.42.05.68.41,2.72-1.15,2.93.59,2.36,1.53-.53,2.76-1.94,2.32-3.04h1.39c.11.73.41,1.04,1.18.26.1-.1.18-.15.28-.26h3.53c-1.25.42-3.45,2.61-3.99,1.67,3.1,2.72,2.73,2.51,4.48,2.14,1.77-.42.41-1.78.41-2.93,0-.52-.15-.79-.33-.89h4.27c-.56,1.04-.65,4.08.93,11.41.28,1.31-2.74-1-2.74-1,0,0-.15.58-.31,1.47h-.84c.19-.68.19-1.67-.03-3.19-.18-1.36-2.92-1.57-2.92-1.57,0,0-1.77-.42-.97,1.57.76,1.89-.69,1.94.84,3.19h-4.96c-.15-.05-.36-.26-.56-.68-.77-1.57-2.74-6.44-1.38-4.87,1.38,1.57-5.07,4.66-2.7,4.87.72.06,1.21.26,1.5.68h-19.48c.33-.32.65-.58,1.02-.68,1.94-.57,5.44-1.99,6.24-2.36.79-.37.19-1.94.19-1.94,0,0-6.24.79-6.65-3.51-.1-1.31-.43-2.46-.83-3.4h9.46ZM248.76,298.64c1.86,3.87,5.82,2.25,5.66,7.12-.18,5.08-2.73.21-3.13-1-.38-1.15-.97.58-1.74,1.78-.79,1.15-3.14,2.3-2.14,3.09.97.79,2.51-.16,3.51.79,0,.05.05.05.08.1h-5.5c-.37-1.67-.88-2.88-.88-2.88,0,0-4.13,1.1-3.59-.15,1.4-3.4,1.09-6.44-.18-8.84h7.93"/>
    <path class="cls-13" d="M280.91,291.89c1.1.68,2.36,1.51,3.32,0,1.38-2.15,1.99-2.72,1.15-4.3-1.15-2.09-6.53,3.04-4.48,4.3M267.79,298.64c4.23-10.99,11.31-12.19,9.43-12.56-1.58-.32-5.13.32-4.1-.21,6.03-3.14,4.47-3.3,9.76-4.87,4.25-1.25,4.47-3.72,0-3.35-2.36.26.77-3.87,14.01-4.97,1.34-.1-4.99-3.3-3.7-2.99,6.24,1.36,10.78.57,22.43.57,6.03,0,5.06,6.02,2.73,5.86-3.86-.31-6.06.79-6.06.79l.44,1.78s21.63-4.08,22.37,4.03c.14,1.25-1.36,11.52-2.92,9.37-5.09-7.01-38.02-10.83-40.89,6.54h-.36c-.43-.37-1.31-.94-1.79,0h-4.27c-.15-.11-.34-.05-.56,0h-3.51c1.45-1.62,1.15-2.83,2.25-3.4,1.17-.57-3.32-1.99-3.51-.21-.1,1-.36,2.62-.22,3.62h-1.39c-.05-.16-.18-.32-.36-.48-1.04-1.09-2.59-1.51-2.56.48h-7.24ZM240.85,298.64c-3.26-6.28-12.92-8.95-16.37-6.13l.72-2.67-3.61-.94c-18.23-3.14-22.11.94-26.66,4.34-2.12,1.62-2.01-7.59-1.9-8.8.74-8.11,27.25-5.75,27.25-5.75l-.79-1.89s-4.88.79-7.75.32c-2.41-.42-1.31-5.13,1.71-5.28,11.63-.73,17.23,2.36,23.27-.26,1.23-.52-2.2,2.67-2.2,2.67,0,0,3.38,1.94,9.11,1.15,1.81-.21-3.82,1.99-3.82,1.99,0,0,8.17-.47,12.84,2.61.93.63-4.88,2.15-4.88,2.15,0,0,9.75,1,16.96,10.94,1.99,2.72-5.63-.63-5.6-.63,2.63,1.1,4.53,4.08,5.85,6.18h-9.43c-.89-2.15-2.04-3.3-1.91-3.4,2.09-2.14-1.95,2.72-2.74,3.3-.77.58-2.84-1.99-2.53-.99.13.42.26.79.43,1.1h-7.94"/>
    <path class="cls-13" d="M367.51,379.08c.98,2.1,2.54,5.39,3.74,4.61l.33-.21c-.33-1.36-4.07-6.33-5.28-11.36-.42-1.78,0,4.5,1.21,6.96"/>
    <path class="cls-2" d="M367.51,379.08c.98,2.1,2.54,5.39,3.74,4.61l.33-.21c-.33-1.36-4.07-6.33-5.28-11.36-.42-1.78,0,4.5,1.21,6.96Z"/>
    <path class="cls-13" d="M348.8,323.4c5.01,6.17,5.76,16.74,10.8,33.39,0,0-7.52.1-9.19-6.13-1.69-6.23-3.99-11.15-4.72-12.61-.72-1.47,0,0,0,5.08s.48,6.49.73,8.11c.23,1.72-3.4,1.2-5.55-3.62-3.11-6.91-7.21-24.65-8.15-28.52-.97-3.87,2.89,24.7,3.38,26.64.48,1.89-3.61,2.15-5.55,0-1.9-2.19-5.97-19-6.7-22.09-.72-3.08-1.9,12.46.97,18.95,2.87,6.49-7.45-1.42-8.41-2.88-.97-1.41-3.12-9.58-3.12-9.58,0,0-1.93,6.49-1.44,9.84s-2.65,1.67-4.07.94c-1.46-.73-1.94-6.96-3.14-8.64-1.18-1.67-1.18-1.94-1.66-.47-.49,1.42.72,5.76,0,7.9-.72,2.2-1.2,3.14-3.11,1.47-1.93-1.67-4.33-4.14-4.82-7.7-.48-3.61.75-3.82.75-3.82,0,0,.96,5.02,2.63,5.28,1.68.21,1.2-4.08,1.2-4.08,0,0,5.42-4.24,6.46-1.94,1.21,2.67,1.69,7.64,2.89,8.64,1.2.99-.25-9.32.96-10.57,1.19-1.2,4.26-1.67,5.25-1.94,1.93-.47,2.87,10.62,4.79,11.98,1,.73-2.08-15.75.3-17.64,0,0,2.76-4.76,4.68-3.13,2.3,1.93,5.31,21.09,7.26,22.97,1.94,1.94-4.71-23.6-2.17-25.17,5.08-3.14,10.09,19.16,12.98,23.71,1.74,2.77-5.52-21.09-4.8-24.7.54-2.66,13.21,30.73,16.67,39.52,2.63,6.65-4.91-21.51-4.91-21.51,0,0-4.32-11.51-1.2-7.69"/>
    <path class="cls-2" d="M348.8,323.4c5.01,6.17,5.76,16.74,10.8,33.39,0,0-7.52.1-9.19-6.13-1.69-6.23-3.99-11.15-4.72-12.61-.72-1.47,0,0,0,5.08s.48,6.49.73,8.11c.23,1.72-3.4,1.2-5.55-3.62-3.11-6.91-7.21-24.65-8.15-28.52-.97-3.87,2.89,24.7,3.38,26.64.48,1.89-3.61,2.15-5.55,0-1.9-2.19-5.97-19-6.7-22.09-.72-3.08-1.9,12.46.97,18.95,2.87,6.49-7.45-1.42-8.41-2.88-.97-1.41-3.12-9.58-3.12-9.58,0,0-1.93,6.49-1.44,9.84s-2.65,1.67-4.07.94c-1.46-.73-1.94-6.96-3.14-8.64-1.18-1.67-1.18-1.94-1.66-.47-.49,1.42.72,5.76,0,7.9-.72,2.2-1.2,3.14-3.11,1.47-1.93-1.67-4.33-4.14-4.82-7.7-.48-3.61.75-3.82.75-3.82,0,0,.96,5.02,2.63,5.28,1.68.21,1.2-4.08,1.2-4.08,0,0,5.42-4.24,6.46-1.94,1.21,2.67,1.69,7.64,2.89,8.64,1.2.99-.25-9.32.96-10.57,1.19-1.2,4.26-1.67,5.25-1.94,1.93-.47,2.87,10.62,4.79,11.98,1,.73-2.08-15.75.3-17.64,0,0,2.76-4.76,4.68-3.13,2.3,1.93,5.31,21.09,7.26,22.97,1.94,1.94-4.71-23.6-2.17-25.17,5.08-3.14,10.09,19.16,12.98,23.71,1.74,2.77-5.52-21.09-4.8-24.7.54-2.66,13.21,30.73,16.67,39.52,2.63,6.65-4.91-21.51-4.91-21.51,0,0-4.32-11.51-1.2-7.69Z"/>
    <path class="cls-13" d="M382.37,401.64c0,2.41,4.34,9.58,4.34,12.72,0,4.19-12.25-15.6-15.36-27.37-1-3.76-.78,3.77-.72,6.23-3.86-6.23-7.21-28.99-10.33-31.66-2.92-2.52,6.7,29.05,6.7,38.89,0,.21-11.76-35.49-12.94-40.3-1.39-5.6,3.86,47.99,20.15,51.55,1.89.42-3.56-8.11-3.1-14.13.49-6.49,3.59,14.13,18.22,23.5,6.49,3.82-6.96-21.83-6.96-19.42"/>
    <path class="cls-2" d="M382.37,401.64c0,2.41,4.34,9.58,4.34,12.72,0,4.19-12.25-15.6-15.36-27.37-1-3.76-.78,3.77-.72,6.23-3.86-6.23-7.21-28.99-10.33-31.66-2.92-2.52,6.7,29.05,6.7,38.89,0,.21-11.76-35.49-12.94-40.3-1.39-5.6,3.86,47.99,20.15,51.55,1.89.42-3.56-8.11-3.1-14.13.49-6.49,3.59,14.13,18.22,23.5,6.49,3.82-6.96-21.83-6.96-19.42Z"/>
    <path class="cls-13" d="M350.72,357.73c1.44,3.82,4.33,41.56,9.13,44.38,4.78,2.88-15.13-8.17-17.31-22.56-2.14-14.4,1.66-28.79,1.93-24.7,1.69,25.17,8.18,41.03,7.46,33.8,0,0-2.66-34.75-1.2-30.93"/>
    <path class="cls-2" d="M350.72,357.73c1.44,3.82,4.33,41.56,9.13,44.38,4.78,2.88-15.13-8.17-17.31-22.56-2.14-14.4,1.66-28.79,1.93-24.7,1.69,25.17,8.18,41.03,7.46,33.8,0,0-2.66-34.75-1.2-30.93Z"/>
    <path class="cls-13" d="M338.49,350.04c1.44,5.28-1.05,28.68,2.14,35.27,2.44,5.03-7.13-9.31-10.05-22.97-2.93-13.46-2.17,5.28-1.24,13.4.33,2.67-8.39-3.14-9.83-15.39-1.43-12.25-.25-10.52.05-12.88.13-1.1,2.15,19.94,4.79,19.94,2.19,0-.96-15.49-.59-18.16.59-4.13,4.24-3.51,4.75,1.05,1.74,15.02,4.96-2.19,4.45,0-.48,2.15,2.52,18.79,3.59,22.09.48,1.42.48-27.63,1.94-22.34"/>
    <path class="cls-2" d="M338.49,350.04c1.44,5.28-1.05,28.68,2.14,35.27,2.44,5.03-7.13-9.31-10.05-22.97-2.93-13.46-2.17,5.28-1.24,13.4.33,2.67-8.39-3.14-9.83-15.39-1.43-12.25-.25-10.52.05-12.88.13-1.1,2.15,19.94,4.79,19.94,2.19,0-.96-15.49-.59-18.16.59-4.13,4.24-3.51,4.75,1.05,1.74,15.02,4.96-2.19,4.45,0-.48,2.15,2.52,18.79,3.59,22.09.48,1.42.48-27.63,1.94-22.34Z"/>
    <path class="cls-13" d="M314.54,342.19c.59,3.5-.58,17.58,1.48,21.67,2.06,4.13-4.13-1.15-6.49-6.86-2.36-5.7-1.18,2.99-1.18,2.99,0,0-12.48-9.16-9.25-15.44,0,0,3.57,5.71,4.42,7.75.92,2.1-1.77-9.52.33-8.95,2.07.58.29,4.14,3.83,10.73,3.38,6.28,1.25-8.95,1.25-8.95,0,0,4.12,13.35,4.12,10.99s.89-17.48,1.48-13.92"/>
    <path class="cls-10" d="M314.54,342.19c.59,3.5-.58,17.58,1.48,21.67,2.06,4.13-4.13-1.15-6.49-6.86-2.36-5.7-1.18,2.99-1.18,2.99,0,0-12.48-9.16-9.25-15.44,0,0,3.57,5.71,4.42,7.75.92,2.1-1.77-9.52.33-8.95,2.07.58.29,4.14,3.83,10.73,3.38,6.28,1.25-8.95,1.25-8.95,0,0,4.12,13.35,4.12,10.99s.89-17.48,1.48-13.92Z"/>
    <path class="cls-13" d="M305.43,395.68c-1.48.31,3.15,4.34-4.62,6.12,3.89,8.01,13.44,22.66,13.8,32.03.08,1.25-15.6,6.85-8.46,12.19,6.8,5.13-5.81-3.4,9.08-4.34.96,1.93,1.5.68,3.16,2.41,2.17,8.32,9.05,9.79,9.05,9.79-3.25-6.86,1.4-11.89,1.4-11.89,2.49,2.83,7.12,5.29,4.45,11.15-4.48,9.94,14.4-9.27,3.74-14.08,6.06.79,7.92,9.26,8.48,7.69,2.16-6.02-3.5-12.45-9.55-11.98-6.26.52-11.99-5.86-11.99-5.86,0,0-6.06-1.2-18.54-33.23"/>
    <path class="cls-2" d="M305.43,395.68c-1.48.31,3.15,4.34-4.62,6.12,3.89,8.01,13.44,22.66,13.8,32.03.08,1.25-15.6,6.85-8.46,12.19,6.8,5.13-5.81-3.4,9.08-4.34.96,1.93,1.5.68,3.16,2.41,2.17,8.32,9.05,9.79,9.05,9.79-3.25-6.86,1.4-11.89,1.4-11.89,2.49,2.83,7.12,5.29,4.45,11.15-4.48,9.94,14.4-9.27,3.74-14.08,6.06.79,7.92,9.26,8.48,7.69,2.16-6.02-3.5-12.45-9.55-11.98-6.26.52-11.99-5.86-11.99-5.86,0,0-6.06-1.2-18.54-33.23Z"/>
    <path class="cls-13" d="M299.02,392.01c0,3.14,3.73-3.19-1.2,10.52-.46,1.25-2.09-5.97-4.04-6.12-1.97-.21,2.81-1,2.81-1,0,0-4.61-4.14-1.05-8.58.64-.84,3.48,2.04,3.48,5.18"/>
    <path class="cls-2" d="M299.02,392.01c0,3.14,3.73-3.19-1.2,10.52-.46,1.25-2.09-5.97-4.04-6.12-1.97-.21,2.81-1,2.81-1,0,0-4.61-4.14-1.05-8.58.64-.84,3.48,2.04,3.48,5.18Z"/>
    <path class="cls-13" d="M301.78,379.5c-2.15,1.78-5.93-1.88-5.93,0,0,2.77,7.72,7.7,8.69,10.99.99,3.3.02-1.31,1.17-4.29.97-2.52-6.7-21.56-3.94-6.7M303.73,382.69c.38.79.62,2.93.25,3.72-.41.79.77.32-.59-.79-4.62-3.66-.05-3.71.34-2.93"/>
    <path class="cls-13" d="M282.16,376.99c-.18,4.71,2.76,12.72,6.27,14.55,3.52,1.78,2.99-1.2.56-3.09-5.89-4.66-4.66-8.22-6.83-11.46"/>
    <path class="cls-2" d="M282.16,376.99c-.18,4.71,2.76,12.72,6.27,14.55,3.52,1.78,2.99-1.2.56-3.09-5.89-4.66-4.66-8.22-6.83-11.46Z"/>
    <path class="cls-13" d="M275.38,376.05c-1.03,2.41-.81,1.62-2.05,1.78-1.2.21-1.15-1.2-1.4-2.04-.26-.84-2.46,9,1.99,18.63,1.28,2.83,8.26,1.47,3.81-11.62-1.55-4.61.03-7.9.03-7.9,0,0-1.38-1.2-2.38,1.15M275.9,384.27c-.47-1.36-2.46-.63-2.46-.63,0,0,.13,6.02.92,7.07,3.69,4.97,2.33-4.09,1.55-6.44"/>
    <path class="cls-13" d="M289.57,359.46c-.41,2.72,1.25,6.23,5.83,13.66,2.25,3.72,4.04-7.9,2.87-10.83-1.17-2.93-7.39-9.84-7.01-13.14.23-1.94.98,6.91,2.92,10.52-.46,2.25,2.68,10.78.49,8.84-1.51-1.36-4.32-10.05-5.09-9.05"/>
    <path class="cls-2" d="M289.57,359.46c-.41,2.72,1.25,6.23,5.83,13.66,2.25,3.72,4.04-7.9,2.87-10.83-1.17-2.93-7.39-9.84-7.01-13.14.23-1.94.98,6.91,2.92,10.52-.46,2.25,2.68,10.78.49,8.84-1.51-1.36-4.32-10.05-5.09-9.05Z"/>
    <path class="cls-13" d="M252.61,340.14c-.72,2.46-3.16,4.09-.96,7.54,2.17,3.51,2.89,9.11,2.89,10.78s3.16-1.94,4.4-3.87c1.2-1.94,2.41-9.32.95-11.04-1.44-1.67-3.4-1.94-3.4-1.94,0,0,1.68,7.22,0,8.74-1.69,1.57-2.2,4.29-2.92,1.31-.72-2.99-.24-13.93-.97-11.52"/>
    <path class="cls-2" d="M252.61,340.14c-.72,2.46-3.16,4.09-.96,7.54,2.17,3.51,2.89,9.11,2.89,10.78s3.16-1.94,4.4-3.87c1.2-1.94,2.41-9.32.95-11.04-1.44-1.67-3.4-1.94-3.4-1.94,0,0,1.68,7.22,0,8.74-1.69,1.57-2.2,4.29-2.92,1.31-.72-2.99-.24-13.93-.97-11.52Z"/>
    <path class="cls-13" d="M267.03,339.67c-3.15,2.2-3.64,4.87-3.89,6.07-.23,1.21,2.19,1.63,2.92,4.14.73,2.52,2.91,6.18,3.42,7.12.47,1,4.36-7.85,3.87-10.78-.47-2.88-.74-2.88-1.71-.21-.95,2.67,0,3.4-2.15,2.41-2.2-.94-1.48-2.41-1.48-3.87s2.19-7.07-.97-4.87"/>
    <path class="cls-2" d="M267.03,339.67c-3.15,2.2-3.64,4.87-3.89,6.07-.23,1.21,2.19,1.63,2.92,4.14.73,2.52,2.91,6.18,3.42,7.12.47,1,4.36-7.85,3.87-10.78-.47-2.88-.74-2.88-1.71-.21-.95,2.67,0,3.4-2.15,2.41-2.2-.94-1.48-2.41-1.48-3.87s2.19-7.07-.97-4.87Z"/>
    <path class="cls-13" d="M268.98,339.2c-1.63,1.47,1.71,2.19,2.44,5.08.69,2.88,4.13-2.57,1.93-4.61-2.17-1.99-1.12-2.04-2.42-2.51l-1.95,2.04"/>
    <path class="cls-2" d="M268.98,339.2c-1.63,1.47,1.71,2.19,2.44,5.08.69,2.88,4.13-2.57,1.93-4.61-2.17-1.99-1.12-2.04-2.42-2.51l-1.95,2.04Z"/>
    <path class="cls-13" d="M281.45,357c1.69,6.44-.96,7.85-.96,9.11,0,1.67-2.45-.79-1.48-3.76,1-2.99-1.45-8.01-1.2-11.99.23-3.98-3.01,7.38-4.21,9.58-1.23,2.2,3.24,4.72,3.01,6.39-.25,1.72-.25,3.93,1.68,5.34,1.95,1.46,6.81-17.07,3.16-14.66"/>
    <path class="cls-2" d="M281.45,357c1.69,6.44-.96,7.85-.96,9.11,0,1.67-2.45-.79-1.48-3.76,1-2.99-1.45-8.01-1.2-11.99.23-3.98-3.01,7.38-4.21,9.58-1.23,2.2,3.24,4.72,3.01,6.39-.25,1.72-.25,3.93,1.68,5.34,1.95,1.46,6.81-17.07,3.16-14.66Z"/>
    <path class="cls-13" d="M287.98,344.91c-.18,1.78.88.58-.35,3.61-.96,2.31-1.42,3.35-1.79.84-.36-2.46-.95-6.07.49-6.75,1.41-.73,1.84.57,1.66,2.3M288.52,336.01c1.42.57,1.23,5.34,1.95,9.11.7,3.71-1.95,12.04-2.49,13.29-.53,1.25-8.52-9.16-7.98-12.93.26-1.94,3.64-15.86,4.13-1.42,1.56-.89,2.7-4.29,2.63-5.91-.05-.99.34-2.61,1.77-2.14M282.92,340.41l.72,3.14s-.23,4.66-1.92,4.13c-2.45-.73,1.2-7.27,1.2-7.27"/>
    <path class="cls-13" d="M262.41,356.53c-1.53,2.67-1.77,1.89-2.76,4.61-.97,2.77-3.24,8.84-.72,10.52,2.51,1.72,4.19,3.98,3.96,4.97-.23.95,4.88-4.71,5.12-6.17.25-1.42,1.94-8.33.49-9.79-1.48-1.46-4.53-6.8-6.09-4.13M262.18,362.6s.39,4.92-.57,5.71c-.96.73.57,1.67.57,1.67,0,0,3.15-2.67,2.43-4.4-.74-1.67-3.24-3.46-3.24-3.46l.81.47"/>
    <path class="cls-13" d="M249.94,355.54c-.84,1.2-1.79.52-1.56,3.92.25,3.4-1.44,9.32-.72,11.99.72,2.67.83,5.91,2.28,5.18,1.45-.73,4.12-1.52,3.64-5.18-.48-3.67,3.54-4.71-.96-7.54-6.03-3.82-2.65-8.58-2.61-8.53.03,0,0,.05-.07.16M250.66,363.38c-1.79,1.73-3,2.46-2.03,4.4.99,1.94,1.55,4.14,2.76,3.15,1.23-.95,2.19-2.62,1.47-4.34-.74-1.68-.41-4.87-2.2-3.2"/>
    <path class="cls-2" d="M249.94,355.54c-.84,1.2-1.79.52-1.56,3.92.25,3.4-1.44,9.32-.72,11.99.72,2.67.83,5.91,2.28,5.18,1.45-.73,4.12-1.52,3.64-5.18-.48-3.67,3.54-4.71-.96-7.54-6.03-3.82-2.65-8.58-2.61-8.53.03,0,0,.05-.07.16ZM250.66,363.38c-1.79,1.73-3,2.46-2.03,4.4.99,1.94,1.55,4.14,2.76,3.15,1.23-.95,2.19-2.62,1.47-4.34-.74-1.68-.41-4.87-2.2-3.2Z"/>
    <path class="cls-1" d="M286.55,366.84c1.28,1.2,5.68,9.27,6.89,13.93,1.2,4.6.25,2.88.25,2.88,0,0,0,1.99-1.69-.47-1.71-2.41-5.93-5.6-6.16-8.11"/>
    <path class="cls-13" d="M264.6,381.23c-.72,5.34.73,5.18-.72,8.58-1.48,3.4,0,2.04-.49,6.54-.23,2.2,5.09,5.23,5.09,5.23l2.68-3.03s-.97-1.94-.72-4.34c.23-2.46,1.44-1.73-.25-3.66-1.71-1.94-2.67.62-1.95-2.52s2.2-8.27.72-8.74c-1.44-.47-2.92-1.72-1.44,1.47,1.44,3.14,0,5.02.72,7.27s1.95,2.52.97,4.97c-.97,2.41.23,3.82-1.69,1.41-1.96-2.41-1.71-.15-2.19-3.87-.49-3.72,0-14.66-.73-9.32"/>
    <path class="cls-2" d="M264.6,381.23c-.72,5.34.73,5.18-.72,8.58-1.48,3.4,0,2.04-.49,6.54-.23,2.2,5.09,5.23,5.09,5.23l2.68-3.03s-.97-1.94-.72-4.34c.23-2.46,1.44-1.73-.25-3.66-1.71-1.94-2.67.62-1.95-2.52s2.2-8.27.72-8.74c-1.44-.47-2.92-1.72-1.44,1.47,1.44,3.14,0,5.02.72,7.27s1.95,2.52.97,4.97c-.97,2.41.23,3.87-1.69,1.41-1.96-2.41-1.71-.15-2.19-3.87-.49-3.72,0-14.66-.73-9.32Z"/>
    <path class="cls-13" d="M260.63,376.62s-5.83-6.91-1.2,0c1.79,2.67-.48,7.7-.23,10.68.23,2.99-.25,6.65-1.48,7.38-1.2.73-1.2.47-1.2.47,0,0-.48-5.03-1.46-6.33-.99-1.25.97,3.93-.74,7.8-1.69,3.87.96,1.31,2.43,2.2,1.2.73,4.14-9.48,5.09-13.98.73-3.19-1.2-8.22-1.2-8.22"/>
    <path class="cls-2" d="M260.63,376.62s-5.83-6.91-1.2,0c1.79,2.67-.48,7.7-.23,10.68.23,2.99-.25,6.65-1.48,7.38-1.2.73-1.2.47-1.2.47,0,0-.48-5.03-1.46-6.33-.99-1.25.97,3.93-.74,7.8-1.69,3.87.96,1.31,2.43,2.2,1.2.73,4.14-9.48,5.09-13.98.73-3.19-1.2-8.22-1.2-8.22Z"/>
    <path class="cls-13" d="M301.55,401.59c2.67-3.03.23,0,1.68-4.71,1.15-3.66-3.37-3.19-1.45-3.19s.23.52,1.97,1.25c1.68.68,1.64-1.25,1.92.94.72,5.7-6.8,8.69-4.12,5.7"/>
    <path class="cls-2" d="M301.55,401.59c2.67-3.03.23,0,1.68-4.71,1.15-3.66-3.37-3.19-1.45-3.19s.23.52,1.97,1.25c1.68.68,1.64-1.25,1.92.94.72,5.7-6.8,8.69-4.12,5.7Z"/>
    <path class="cls-13" d="M239.41,435.04c5.57-4.14,10.3-12.61,13.93-18.32,3.65-5.71-.72-5.18-2.19-5.39-1.44-.32-19.11,33.44-21.79,36.64-2.64,3.25,22.52-17.79,71.44,1.73,1.89.73.94-2.72-12.46-19.78-7.13-9.05-.72-18.9-7.87-23.97-5.5-3.93,4.76,7.32,2.43,11.98-.72,1.47-2.92-1.67-3.15-3.4-.25-1.67-.97,7.54-1.68,5.34-.73-2.2-2.68,5.97.47,6.38,3.16.53,1.94.79,1.94.79,0,0,.26,5.97-.22,7.28-.5,1.25-3.91.73-4.15-2.2-.23-2.93-2.73-.26-2.73-.26l-3.4-2.66v5.39s-2.84.68-6.32.68-4.88-8.69-3.76-10.52c1.71-2.66-.72,6.65-.72,6.65,0,0-1.2-4.29-1.68-5.55-.49-1.31-.49,5.08-1.96,5.81-1.44.73,2.68,4.76,1.47,5.81-1.23,1.04-4.37.1-5.85-.47-1.44-.58,2.93-1.47,1.48-3.87-1.48-2.46-.16-2.67-2.2-2.2s-3.96-1.2-5.44.47c-1.44,1.73.52,5.24-.95,6.33-.97.68-1.66,1-2.68.26.74-2.77-2.5-2.52-1.94-2.93"/>
    <path class="cls-2" d="M239.41,435.04c5.57-4.14,10.3-12.61,13.93-18.32,3.65-5.71-.72-5.18-2.19-5.39-1.44-.32-19.11,33.44-21.79,36.64-2.64,3.25,22.52-17.79,71.44,1.73,1.89.73.94-2.72-12.46-19.78-7.13-9.05-.72-18.9-7.87-23.97-5.5-3.93,4.76,7.32,2.43,11.98-.72,1.47-2.92-1.67-3.15-3.4-.25-1.67-.97,7.54-1.68,5.34-.73-2.2-2.68,5.97.47,6.38,3.16.53,1.94.79,1.94.79,0,0,.26,5.97-.22,7.28-.5,1.25-3.91.73-4.15-2.2-.23-2.93-2.73-.26-2.73-.26l-3.4-2.66v5.39s-2.84.68-6.32.68-4.88-8.69-3.76-10.52c1.71-2.66-.72,6.65-.72,6.65,0,0-1.2-4.29-1.68-5.55-.49-1.31-.49,5.08-1.96,5.81-1.44.73,2.68,4.76,1.47,5.81-1.23,1.04-4.37.1-5.85-.47-1.44-.58,2.93-1.47,1.48-3.87-1.48-2.46-.16-2.67-2.2-2.2s-3.96-1.2-5.44.47c-1.44,1.73.52,5.24-.95,6.33-.97.68-1.66,1-2.68.26.74-2.77-2.5-2.52-1.94-2.93Z"/>
    <path class="cls-13" d="M264.36,413.21c-1.94,2.52,0,7.33-.48,11.04-.49,3.71.23,6.86,2.43,8.32,2.17,1.47-.74-1.36,1.2-5.08,1.94-3.71,1.46-9.58,2.93-11.51,1.44-1.94-1.97-1.94-1.97-1.94,0,0,0,5.29-1.68,10.94-1.71,5.66-3.89-7.07-1.47-9.26,2.44-2.2.47-2.72.47-2.72,0,0,.51-2.31-1.44.21"/>
    <path class="cls-2" d="M264.36,413.21c-1.94,2.52,0,7.33-.48,11.04-.49,3.71.23,6.86,2.43,8.32,2.17,1.47-.74-1.36,1.2-5.08,1.94-3.71,1.46-9.58,2.93-11.51,1.44-1.94-1.97-1.94-1.97-1.94,0,0,0,5.29-1.68,10.94-1.71,5.66-3.89-7.07-1.47-9.26,2.44-2.2.47-2.72.47-2.72,0,0,.51-2.31-1.44.21Z"/>
    <path class="cls-13" d="M272.39,419.65c-.25,3.13-.25,8.06,1.2,7.85,1.48-.26,2.06-1.89,1.07-4.23-2.28-5.34-.92-2.67-2.28-3.61"/>
    <path class="cls-13" d="M256.5,405.46c.97,2.93-.23,3.14-.23,4.14,0,.94.72,2.51.72,4.66s2.2-1.73,2.68-3.72c.49-1.94,1.69-8.48,1.69-8.48l-.97.47s1.2,7.07-.23,8.48c-1.46,1.52-2.2,1.52-2.2,1.52,0,0,1-2.72,0-5.39-.97-2.67-2.41-4.61-1.45-1.68"/>
    <path class="cls-2" d="M256.5,405.46c.97,2.93-.23,3.14-.23,4.14,0,.94.72,2.51.72,4.66s2.2-1.73,2.68-3.72c.49-1.94,1.69-8.48,1.69-8.48l-.97.47s1.2,7.07-.23,8.48c-1.46,1.52-2.2,1.52-2.2,1.52,0,0,1-2.72,0-5.39-.97-2.67-2.41-4.61-1.45-1.68Z"/>
    <path class="cls-13" d="M270.93,405.94c.23,2.19-.25,4.4-.25,4.4,0,0,2.44,0,2.68.94.23,1-.84,4.97.48,4.24,1.28-.79,1.28-4.97,1.28-4.97,0,0,.23-4.6,1.23-5.81.97-1.26-1.23-2.46-1.23-2.46,0,0-.08,5.39-.8,7.53-.73,2.2-2.68-.94-2.2-2.41.48-1.46-1.45-3.61-1.2-1.46"/>
    <path class="cls-2" d="M270.93,405.94c.23,2.19-.25,4.4-.25,4.4,0,0,2.44,0,2.68.94.23,1-.84,4.97.48,4.24,1.28-.79,1.28-4.97,1.28-4.97,0,0,.23-4.6,1.23-5.81.97-1.26-1.23-2.46-1.23-2.46,0,0-.08,5.39-.8,7.53-.73,2.2-2.68-.94-2.2-2.41.48-1.46-1.45-3.61-1.2-1.46Z"/>
    <path class="cls-13" d="M255.78,418.92c.97,0,1.71-.26,1.71-.26,0,0,1.2,3.87.23,4.13-.98.26-2.92-3.87-1.95-3.87"/>
    <path class="cls-13" d="M254.32,424.25c.96-1.94.72-2.93-.49-2.19-1.2.73-2.2.52-2.2,1.46,0,1-1.2,5.91,2.2,7.12,3.4,1.2,1.45,0,1.45,0l.72,3.93-1.93.68s-3.65-3.77-2.93-7.28c.73-3.45-.96-4.45-.72-5.91.23-1.47-.72.99,1.2-.48,1.97-1.46,1.23-2.66,1.97-1.46.72,1.2-.25,6.07.72,4.13"/>
    <path class="cls-2" d="M254.32,424.25c.96-1.94.72-2.93-.49-2.19-1.2.73-2.2.52-2.2,1.46,0,1-1.2,5.91,2.2,7.12,3.4,1.2,1.45,0,1.45,0l.72,3.93-1.93.68s-3.65-3.77-2.93-7.28c.73-3.45-.96-4.45-.72-5.91.23-1.47-.72.99,1.2-.48,1.97-1.46,1.23-2.66,1.97-1.46.72,1.2-.25,6.07.72,4.13Z"/>
    <path class="cls-13" d="M163.54,379.08c-1.02,2.1-2.55,5.39-3.75,4.61l-.33-.21c.33-1.36,4.08-6.33,5.26-11.36.43-1.78,0,4.5-1.18,6.96"/>
    <path class="cls-2" d="M163.54,379.08c-1.02,2.1-2.55,5.39-3.75,4.61l-.33-.21c.33-1.36,4.08-6.33,5.26-11.36.43-1.78,0,4.5-1.18,6.96Z"/>
    <path class="cls-13" d="M182.24,323.4c-4.99,6.17-5.77,16.74-10.81,33.39,0,0,7.54.1,9.2-6.13,1.69-6.23,3.99-11.15,4.71-12.61.73-1.47,0,0,0,5.08s-.48,6.49-.72,8.11c-.23,1.72,3.4,1.2,5.55-3.62,3.1-6.91,7.21-24.65,8.14-28.52.97-3.87-2.89,24.7-3.38,26.64-.45,1.89,3.63,2.15,5.55,0,1.91-2.19,5.98-19,6.7-22.09.73-3.08,1.94,12.46-.96,18.95-2.88,6.49,7.44-1.42,8.42-2.88.95-1.41,3.1-9.58,3.1-9.58,0,0,1.94,6.49,1.45,9.84-.48,3.35,2.66,1.67,4.1.94,1.43-.73,1.91-6.96,3.11-8.64,1.18-1.67,1.18-1.94,1.66-.47.49,1.42-.69,5.76,0,7.9.72,2.2,1.2,3.14,3.1,1.47,1.94-1.67,4.34-4.14,4.83-7.7.48-3.61-.74-3.82-.74-3.82,0,0-.95,5.02-2.63,5.28-1.69.21-1.2-4.08-1.2-4.08,0,0-5.42-4.24-6.46-1.94-1.2,2.67-1.69,7.64-2.89,8.64-1.2.99.23-9.32-.97-10.57-1.17-1.2-4.25-1.67-5.24-1.94-1.94-.47-2.87,10.62-4.8,11.98-1,.73,2.09-15.75-.29-17.64,0,0-2.76-4.76-4.69-3.13-2.28,1.93-5.3,21.09-7.27,22.97-1.92,1.94,4.73-23.6,2.17-25.17-5.06-3.14-10.07,19.16-12.94,23.71-1.77,2.77,5.5-21.09,4.78-24.7-.54-2.66-13.19,30.73-16.67,39.52-2.63,6.65,4.91-21.51,4.91-21.51,0,0,4.3-11.51,1.2-7.69"/>
    <path class="cls-2" d="M182.24,323.4c-4.99,6.17-5.77,16.74-10.81,33.39,0,0,7.54.1,9.2-6.13,1.69-6.23,3.99-11.15,4.71-12.61.73-1.47,0,0,0,5.08s-.48,6.49-.72,8.11c-.23,1.72,3.4,1.2,5.55-3.62,3.1-6.91,7.21-24.65,8.14-28.52.97-3.87-2.89,24.7-3.38,26.64-.45,1.89,3.63,2.15,5.55,0,1.91-2.19,5.98-19,6.7-22.09.73-3.08,1.94,12.46-.96,18.95-2.88,6.49,7.44-1.42,8.42-2.88.95-1.41,3.1-9.58,3.1-9.58,0,0,1.94,6.49,1.45,9.84-.48,3.35,2.66,1.67,4.1.94,1.43-.73,1.91-6.96,3.11-8.64,1.18-1.67,1.18-1.94,1.66-.47.49,1.42-.69,5.76,0,7.9.72,2.2,1.2,3.14,3.1,1.47,1.94-1.67,4.34-4.14,4.83-7.7.48-3.61-.74-3.82-.74-3.82,0,0-.95,5.02-2.63,5.28-1.69.21-1.2-4.08-1.2-4.08,0,0-5.42-4.24-6.46-1.94-1.2,2.67-1.69,7.64-2.89,8.64-1.2.99.23-9.32-.97-10.57-1.17-1.2-4.25-1.67-5.24-1.94-1.94-.47-2.87,10.62-4.8,11.98-1,.73,2.09-15.75-.29-17.64,0,0-2.76-4.76-4.69-3.13-2.28,1.93-5.3,21.09-7.27,22.97-1.92,1.94,4.73-23.6,2.17-25.17-5.06-3.14-10.07,19.16-12.94,23.71-1.77,2.77,5.5-21.09,4.78-24.7-.54-2.66-13.19,30.73-16.67,39.52-2.63,6.65,4.91-21.51,4.91-21.51,0,0,4.3-11.51,1.2-7.69Z"/>
    <path class="cls-13" d="M148.67,401.64c0,2.41-4.34,9.58-4.34,12.72,0,4.19,12.25-15.6,15.36-27.37.99-3.76.77,3.77.72,6.23,3.86-6.23,7.21-28.99,10.33-31.66,2.92-2.52-6.7,29.05-6.7,38.89,0,.21,11.76-35.49,12.94-40.3,1.39-5.6-3.86,47.99-20.15,51.55-1.89.42,3.56-8.11,3.1-14.13-.48-6.49-3.59,14.13-18.21,23.5-6.49,3.82,6.96-21.83,6.96-19.42"/>
    <path class="cls-2" d="M148.67,401.64c0,2.41-4.34,9.58-4.34,12.72,0,4.19,12.25-15.6,15.36-27.37.99-3.76.77,3.77.72,6.23,3.86-6.23,7.21-28.99,10.33-31.66,2.92-2.52-6.7,29.05-6.7,38.89,0,.21,11.76-35.49,12.94-40.3,1.39-5.6-3.86,47.99-20.15,51.55-1.89.42,3.56-8.11,3.1-14.13-.48-6.49-3.59,14.13-18.21,23.5-6.49,3.82,6.96-21.83,6.96-19.42Z"/>
    <path class="cls-13" d="M180.32,357.73c-1.45,3.82-4.34,41.56-9.11,44.38-4.8,2.88,15.11-8.17,17.29-22.56,2.14-14.4-1.64-28.79-1.94-24.7-1.69,25.17-8.14,41.03-7.44,33.8,0,0,2.65-34.75,1.2-30.93"/>
    <path class="cls-2" d="M180.32,357.73c-1.45,3.82-4.34,41.56-9.11,44.38-4.8,2.88,15.11-8.17,17.29-22.56,2.14-14.4-1.64-28.79-1.94-24.7-1.69,25.17-8.14,41.03-7.44,33.8,0,0,2.65-34.75,1.2-30.93Z"/>
    <path class="cls-13" d="M192.55,350.04c-1.41,5.28,1.05,28.68-2.14,35.27-2.44,5.03,7.13-9.31,10.07-22.97,2.91-13.46,2.15,5.28,1.21,13.4-.33,2.67,8.39-3.14,9.83-15.39,1.45-12.25.25-10.52-.05-12.88-.13-1.1-2.15,19.94-4.8,19.94-2.18,0,.97-15.49.6-18.16-.6-4.13-4.21-3.51-4.75,1.05-1.74,15.02-4.96-2.19-4.45,0,.49,2.15-2.51,18.79-3.59,22.09-.48,1.42-.48-27.63-1.94-22.34"/>
    <path class="cls-2" d="M192.55,350.04c-1.41,5.28,1.05,28.68-2.14,35.27-2.44,5.03,7.13-9.31,10.07-22.97,2.91-13.46,2.15,5.28,1.21,13.4-.33,2.67,8.39-3.14,9.83-15.39,1.45-12.25.25-10.52-.05-12.88-.13-1.1-2.15,19.94-4.8,19.94-2.18,0,.97-15.49.6-18.16-.6-4.13-4.21-3.51-4.75,1.05-1.74,15.02-4.96-2.19-4.45,0,.49,2.15-2.51,18.79-3.59,22.09-.48,1.42-.48-27.63-1.94-22.34Z"/>
    <path class="cls-13" d="M216.5,342.19c-.59,3.5.59,17.58-1.48,21.67-2.07,4.13,4.13-1.15,6.49-6.86,2.36-5.7,1.18,2.99,1.18,2.99,0,0,12.48-9.16,9.24-15.44,0,0-3.56,5.71-4.41,7.75-.91,2.1,1.74-9.52-.33-8.95-2.06.58-.3,4.14-3.83,10.73-3.38,6.28-1.25-8.95-1.25-8.95,0,0-4.14,13.35-4.14,10.99s-.87-17.48-1.46-13.92"/>
    <path class="cls-10" d="M216.5,342.19c-.59,3.5.59,17.58-1.48,21.67-2.07,4.13,4.13-1.15,6.49-6.86,2.36-5.7,1.18,2.99,1.18,2.99,0,0,12.48-9.16,9.24-15.44,0,0-3.56,5.71-4.41,7.75-.91,2.1,1.74-9.52-.33-8.95-2.06.58-.3,4.14-3.83,10.73-3.38,6.28-1.25-8.95-1.25-8.95,0,0-4.14,13.35-4.14,10.99s-.87-17.48-1.46-13.92ZM216.2,417.03c0,1.36-.59.79-.59.79h1.38"/>
    <path class="cls-13" d="M222.44,416.09c.59.94,0,1.93,0,1.93l1.15.79s1-.42,2.15-1.78c1.17-1.36-.97-1.94-.97-1.94,0,0-1.95,1.36-2.33,1"/>
    <path class="cls-2" d="M222.44,416.09c.59.94,0,1.93,0,1.93l1.15.79s1-.42,2.15-1.78c1.17-1.36-.97-1.94-.97-1.94,0,0-1.95,1.36-2.33,1Z"/>
    <path class="cls-13" d="M221.47,411.01c-.19,1.94.18.79-.58,2.52-.79,1.78-1.38,1.42-1.38,1.42,0,0,1.18.37,1.96-.42.77-.78.18-5.44,0-3.51"/>
    <path class="cls-2" d="M221.47,411.01c-.19,1.94.18.79-.58,2.52-.79,1.78-1.38,1.42-1.38,1.42,0,0,1.18.37,1.96-.42.77-.78.18-5.44,0-3.51Z"/>
    <path class="cls-13" d="M226.14,403.58c-.58,1.78-.39,2.93-1.54,3.3-1.19.42.18,2.77,2.7,2.15,2.55-.53,2.95-.53,2.95-.53,0,0-1.96-.79-2.95-.99-.96-.21,1.17-1.78.99-2.77-.18-.95-1.56-2.88-2.15-1.16"/>
    <path class="cls-2" d="M226.14,403.57c-.58,1.78-.39,2.93-1.54,3.3-1.19.42.18,2.77,2.7,2.15,2.55-.53,2.95-.53,2.95-.53,0,0-1.96-.79-2.95-.99-.96-.21,1.17-1.78.99-2.77-.18-.95-1.56-2.88-2.15-1.16Z"/>
    <path class="cls-13" d="M235.89,401.85c-.37,1.15.19,1.36-.59,2.3-.77,1-.96.21-1.95.63-.97.37-2.92.57-1.38,1.94,1.56,1.36.99.21,1.78.21s2.72-.42,3.29-2.36c.6-1.94-.77-3.93-1.15-2.72"/>
    <path class="cls-2" d="M235.89,401.85c-.37,1.15.19,1.36-.59,2.3-.77,1-.96.21-1.95.63-.97.37-2.92.57-1.38,1.94,1.56,1.36.99.21,1.78.21s2.72-.42,3.29-2.36c.6-1.94-.77-3.93-1.15-2.72Z"/>
    <path class="cls-13" d="M226.93,396.77c.98,1.78,3.12,1.94.58,3.3-2.55,1.41-3.32,3.13-3.32,3.13,0,0-2.55-2.51-1.37-3.3,1.17-.79,4.29-3.5,4.11-3.14"/>
    <path class="cls-2" d="M226.93,396.77c.98,1.78,3.12,1.94.58,3.3-2.55,1.41-3.32,3.13-3.32,3.13,0,0-2.55-2.51-1.37-3.3,1.17-.79,4.29-3.5,4.11-3.14Z"/>
    <path class="cls-13" d="M232.97,392.48c0,3.09-4.32,6.13-.99,7.8,1.17.57,3.32-3.71,5.27-3.87,1.97-.21-1.54-2.36-1.54-2.36,0,0,.77-6.8-.22-7.22-.96-.42-2.52,2.51-2.52,5.65"/>
    <path class="cls-2" d="M232.97,392.48c0,3.09-4.32,6.13-.99,7.8,1.17.57,3.32-3.71,5.27-3.87,1.97-.21-1.54-2.36-1.54-2.36,0,0,.77-6.8-.22-7.22-.96-.42-2.52,2.51-2.52,5.65Z"/>
    <path class="cls-13" d="M229.66,378.09c2.14,1.72,3.89,2.51,3.89,4.45,0,2.72-5.84,7.8-6.8,11.09-1,3.3-.03-1.25-1.18-4.24-.97-2.56,3.89-7.43,4.1-11.3M227.31,387.4c-.38.79-.38,1.36,0,2.15.4.79-.87.21.58-.79,1.77-1.15-.18-2.15-.58-1.36"/>
    <path class="cls-13" d="M242.71,375.32c.59,2.56-.37,3.71.79,4.13,1.17.37,1.36-.99,1.77-1.78.38-.79,1.74,7.27-4.29,15.96-1.77,2.57-3.72-7.59-1.77-12.03,1.97-4.5,1.38-7.8,1.38-7.8,0,0,1.54-1,2.13,1.52M240.76,383.32c.69-1.25,2.54-.21,2.54-.21,0,0-1.55,5.65-2.13,6.85-.59,1.15-1.56-4.5-.41-6.65"/>
    <path class="cls-13" d="M239.98,359.93c.38,2.73.05,11-5.27,14.81-3.51,2.57-3.11-9.52-1.94-12.45,1.15-2.93.97-2.15.56-5.5-.21-1.94,1.08-1.57,1.78,1.78.44,2.25-.14,7.33.77,7.59,1.95.63,3.32-7.17,4.09-6.23"/>
    <path class="cls-2" d="M239.98,359.93c.38,2.73.05,11-5.27,14.81-3.51,2.57-3.11-9.52-1.94-12.45,1.15-2.93.97-2.15.56-5.5-.21-1.94,1.08-1.57,1.78,1.78.44,2.25-.14,7.33.77,7.59,1.95.63,3.32-7.17,4.09-6.23Z"/>
    <path class="cls-13" d="M240.57,333.6c-1.56.62-1.36,5.86-2.15,9.94-.77,4.13,2.15,13.29,2.74,14.65.56,1.31,8.36-9.58,7.8-13.66-.59-4.08-6.65-4.87-6.44-8.58.06-1.1-.39-2.88-1.95-2.36M241.17,343.39c.18,1.94-1,.53.38,3.87,1.04,2.57,1.54,3.72,1.95,1s1.97-3.14.41-3.93c-1.58-.79-2.95-2.93-2.73-.95"/>
    <path class="cls-2" d="M132.25,412.27l-.33-.32h.33v.32Z"/>
    <path class="cls-13" d="M434.06,812.02c.03.73.07,1.47.15,2.15-8.33,6.07-13.29,13.97-19.62,21.14-3.81.48-8.92-.78-12.7.26,0,0-.38-.1-.34-.32.18-6.07,8.39-5.5,11.17-5.86,5.54-5.23,9.88-10.21,13.76-16.01.02-.42,0-.89-.02-1.36h7.59ZM418.82,812.02c-4.95,2.88-9.19,8.27-14.01,10.52l-1.39,4.66c-2.66.89-5.47-.95-8.15.84-1.71-.63-5.27,1.47-4.84-1.2,1.15-2.57,2.64-5.29,5.94-6.02l4.37-1c2.95-2.56,6.49-5.03,9.59-7.75l8.49-.05"/>
    <path class="cls-13" d="M453.96,788.31h-.06l-18.62,17.69c-.91,1.78-1.27,3.93-1.24,6.02h-7.6c-.14-1.46-.68-3.09-1.58-4.81-2.92-6.33-1.48-12.93.31-18.89h28.79ZM424.35,788.31c-1.61,5.39-3.4,12.82,0,19.42.38.73-.89,1.89-1.56,2.72-1.39.32-2.71.89-3.97,1.62l-8.49-.05c2.25-1.94,4.32-4.08,5.76-6.54.19-5.08,1.23-11.72,3.57-17.17h4.69ZM408.9,788.31c-.83.26-1.68.47-2.54.57.16-.21.34-.37.54-.57h2ZM405.88,788.31l-.67.84c-2.09,2.1-5.47,2.36-8.23,2.04,1.15-.79,2.58-1.89,3.54-2.88h5.36ZM399.42,788.31c-.51.47-1.07.94-1.58,1.31-.62.47-1.57,1.15-2.14,1.52-1.71.73-4.18.32-5.93,0l-.18-.37c.85-.42,2.08-1.1,2.67-1.83,0,0,.25-.42.11-.62h7.04ZM391.98,788.31c-.08,0-.18.05-.3.1-.34.42-.98.79-1.47,1.15-.43.32-1.32.73-1.96,1-2.03.1-4.68-.16-7.09-.37.08-.53.11-1.2.11-1.89h10.72ZM343.5,788.31c8.21,2.88,15.5,1.57,24.68,2.99.35-.95.58-1.94.68-2.99h11.71c-.04.68-.12,1.36-.38,1.78-2.53,3.04-.75,8.48-6.01,8.53-3.35-.05-7.19-2.25-11.34-2.41l-17.39-2.2c-1.68,1.05-2.81,2.05-4.83,2.36-3.43,2.09-1.12,3.98-2.65,6.91-2.92.89-5.73-.26-8.39.05-2.41-5.86,5.36-9.16,8.66-12.3.61-.95,1.12-2.04,2-2.72h3.24"/>
    <path class="cls-13" d="M357.59,722.26c.37.63.72.94,1.39,1.31,1.1.58,2.81.95,3.19-.05,1.02-2.77-4.4-2.3-4.58-1.25M419.65,788.31c.56-1.31,1.2-2.57,1.92-3.72,1.72-.05,3.07-.1,3.99-.47-.29,1.15-.74,2.62-1.23,4.19h-4.68ZM368.86,788.31c.06-.57.08-1.2.06-1.89.13-2.36.8-10.57,3.99-13.45,1.05-.84-.51-.58-.51-.58-2.51,2.3-3.51,6.6-3.91,9.9l-.18-.63c-.38-1.15-2.79-7.01-1.63-7.9.77-.84-.46-.58-.46-.58-.64.48-.72,1.31-.61,2.2.31,2.83,1.85,5.44,2.46,8.22l-1.71-1.67c-3.78.94-6.73,4.29-10.95,3.61l-3.5-3.93-17.04-11.36c-2.95,1.15-7.51,1.94-8.44,5.81-2.79.84-5.39-1-7.97-1.83-.91-.84-2.95-1.15-3.76-2.2-.73-1.41.98-2.98,2.33-3.14,2.25-1.04,5.07.79,6.83.42,4.13-1.1,6.85-5.97,11.82-5.13l4.21,3.35,17.84,9.47,6.86-4.29c2.52-6.28,6.6-14.34,1.99-20.57-2.99-2.83-2.69-6.91-5.21-9.94-1.66-1.89-2.49-4.66-4.12-6.7l2.73.73c.64.32.85-.57.21-.73-.34-.11-3.99-1.15-3.99-1.15-.8-.68-1.77-1.15-3-1.31-.35-2.04-2.87-4.45-4.65-5.18.87,5.81,1.08,10.05-.95,14.71-.3,1.57-1.74,2.66-2.37,2.61-.67,0-1.18-.21-1.5-.79-.33-1.57.54-3.19,1.2-4.76,1.9-10.36-1.91-19.68-7.34-27.9-2.45-3.71-3.52-6.12-5.63-8.01,0,0-10.88,7.17-14.49-10.15-1.18-5.6-2.93-9.21-7.34-13.14,7.44-1.62,12.02,17.22,17.33,13.56,2.44-1.72-7-3.93-6.06-8.06.61-2.72-3.63-6.39-1.69-17.12,1.59,14.45,20.52,6.38,15.04,31.46,5.99,6.81,10.49,15.91,10.49,15.91,0,0,.84-.84,1.63-.53.57.26,11.04,4.61,11.04,4.61,3.6-2.51,5.5,2.14,7.75,3.51,3.03.15,5.5,2.2,6.09,5.28l.35,1.68c-.02,1.41-.37,2.77-.43,3.35-.1,1.31.06,2.41-.66,3.66l-.76-.89c-2.44-.47-1.95-2.67-2.15-4.5l-.08-.63c-.1-.57-.23-1.1-.51-1.62l-.77-1.78c-.59-.89-.95-.21-.72.31.18.42.42,1.15.42,1.15-.98,0-2.05.37-2.79.15-.98-.21-.72.63-.23.73,1.04.42,2.22-.21,3.32-.1l.53,1.42.05.42c.21,2.04-.15,4.55,2.53,5.13l1.25,1.52c1.85-2.77.97-3.87,1.61-6.54,5.04,5.08,9.37,9.74,14.6,15.7,2.68.42,4.76,2.25,6.19,4.08,4.4,1.68,8.36,2.67,11.46,6.18,6.06,1.99,15.9,2.83,23.16,2.04,11.76-.94,23.29-4.81,31.78,6.18,9.51,1.47,19.15,2.88,27.84-2.67,6.93-4.61,12.58-12.61,12.83-21.56.74-7.8-4.67-14.44-10.29-18.16-.74-1.15-.8-2.93.45-3.61,5.6,1.1,9.54,4.92,12.46,9.89,5.08,10.26,1.46,24.34-5.73,32.5-4.22,4.66-9.72,9.27-16.08,10.05-6.78,1.26-15.48,1.15-20.72-.26.08,5.75-3.45,10.83-6.75,15.44h-28.74c.4-1.36.83-2.62,1.23-3.87l.29-1.52c-1.66.73-3.48.79-5.27.89,1.36-.73,4.96-2.61,5.73-3.08,0,0,1.38-1.05.22-.89-.92.58-7.83,4.03-7.83,4.03-3.81.99-7.08,3.3-10.68,4.45h-2c.74-.89,1.48-1.89,1.97-2.83,0,0-.26-1.1-.69-.37-.37.73-1.02,1.62-1.58,2.3l-.69.89h-5.36c.19-.21.38-.42.51-.63,0,0,.06-1.1-.61-.47-.26.37-.61.73-1.02,1.1h-7.04c-.05-.1-.15-.1-.4,0h-10.72c0-1.67-.21-3.4-.21-3.4,1.06-1.2,4.05-1.99,5.54-2.77,2.29-1.25,4.23-3.24,4.05-7.48,0,0-.91-1.25-.79,0,.17,3.93-1.57,5.66-3.63,6.75-1.85,1-4.63,1.57-5.98,3.25,0,0,.41,1.99.36,3.66h-11.71ZM340.28,788.31c.45-.37,1.01-.57,1.77-.57.51.21.98.41,1.47.57h-3.24"/>
    <path class="cls-13" d="M465.21,670.14c3.14,0,8.58,4.65,10.15,0,1.53-4.71-114.18-114.73-207.4-131.01-67.05-11.72-100.2,17.17-111.88,24.18-4.87,2.93,5.85-2.72,12.47-2.72-5.07,2.3-7.03,5.03-10.13,11.67-1.35,2.83,12.08-14.03,15.19-11.31l-5.85,10.52s12.09-11.31,14.42-10.52l-4.66,9.74s13.83-14.66,16.16-11.15c2.33-.79-2.89,5.71-6.41,10l21.81-13.24c-1.54,5.08-8.57,8.58-7.8,13.24,0,0,8.21-8.95,27.28-17.54-4.25,3.51-15.99,18.37-15.99,18.37,0,0,9.48-7.9,14.55-11.46l-3.99,9.84c10.13-9.74,23.4-13.51,23.4-13.51,0,0-19.85,21.41-15.24,16.23,6.24-7.01,32.75-15.97,32.75-15.97-5.6,3.87-21.17,12.82-18.71,17.9,6.9-6.12,20.69-13.71,22.76-12.5.81.47-25.57,17.16-18.7,13.92,8.6-4.03,31.61-10.05,31.61-10.05,0,0-18.84,5.34-20.63,15.28,0,0,27.33-11.88,28.84-11.2,1.79.89-19.94,12.66-19.94,12.66l20.23-4.29-9.19,7.7s20.79-6.07,23.02-5.03c2.17,1.05-14.12,6.38-15.17,7.12-1.04.73,28.95-3.61,32.5-4.03,3.57-.42-15.86,6.12-15.86,6.12,0,0,24.5-.62,31.46-.89,6.97-.32-18.84,7.12-22.1,7.12s43.94-2.41,47.51-1.04c3.58,1.31-19.59,5.81-23.16,7.12-3.58,1.36,30.71-2.52,32.93-.26,2.25,2.2-24.49,6.07-25.08,6.49-.58.48,40.45-3.4,45.77-2.36,0,0,50.89,34.54,73.08,64.85"/>
    <path class="cls-13" d="M624.34,563.84c.24-1.2,1.23-2.04,2.68-2.14,2.16-.1,4.58,1.51,5.38,3.66.84,2.14-.29,3.93-2.46,4.08-1.04,0-5.04.84-5.04-2.3,0,0-8.79-3.51-15.41.21-2.76,1.52,4.88,4.4,4.88,4.4,2.6-.15,5.44,1.78,6.4,4.34.97,2.52-.34,4.71-2.92,4.81-2.57.16-5.47-1.78-6.4-4.34-.48-1.25-.41-2.41,0-3.35-8.02-8.37-16.38-5.86-19.11-5.86-2.16,0,2.88,5.55,4.96,7.12.3-.05.61,1.47.94,1.42,2.55-.16,4.64.63,6.41,2.61.96,2.46-.81,3.67-3.35,3.82-2.53.26-4.88-.68-5.85-3.14-.29-.73-.41-1.42-.38-2.09-8.19-10.89-23.2-11.31-23.2-9.74,0,1.05,6.83,4.34,9.36,6.85.29-.05.59-.1.88-.15,2.53-.21,5.36,1.57,6.38,4.03,1.01,2.41-.09,3.3-2.57,3.51-2.49.21-5.44-.32-6.47-2.72-.5-1.2-1.82-2.25-1.33-3.14-3.89-5.18-20.58-9.47-23.21-7.59-2.72,1.94,8.77,8.27,8.77,8.38,2.41-.16,6.11.68,7.13,2.98,1.05,2.36-.07,4.5-2.55,4.71-2.46.26-5.27-1.42-6.32-3.77-.18-.47-.3-.89-.38-1.25l-.39-.52c-11.32-11.31-21.86-9.74-23.8-9.37-1.58.32,6.44,4.81,10.02,7.01.29-.15.64-.21,1.05-.26,2.41-.32,5.22,1.31,6.29,3.66,1.07,2.3-.03,4.4-2.43,4.71-2.42.32-5.24-1.36-6.31-3.66-.42-.94-2.06-1.89-1.82-2.62-18.89-13.29-24.42-7.27-27.47-7.27-2.66,0,13.45,9.16,13.45,9.16,2.36-.37,5.85-.47,7,1.78,1.1,2.25.11,4.34-2.25,4.71-2.37.42-5.18-1.1-6.31-3.35-.34-.68-.51-1.31-.48-1.94-24.65-14.08-25.05-6.85-25.05-6.85l14.25,8.79c.21-.1.44-.15.64-.21,2.3-.42,5.14.99,6.33,3.14,1.2,2.14.29,4.29-2.01,4.71-2.33.42-5.15-.95-6.32-3.09-.22-.42-.38-.79-.46-1.2l-.76-.84c-14.78-11.52-22.2-9.37-26.87-8.17-3.99.99,9.3,5.23,13.56,7.9.21-.1.42-.15.67-.26,2.25-.57,6.65.68,7.93,2.72,1.28,2.04-1.07,4.19-3.3,4.76-2.25.58-5.09-.68-6.37-2.72-.73-1.15-.79-2.36-.33-3.24l-.49-.21c-25.03-11.57-23.95-4.29-30.6-2.72-6.32,1.47,17.26,7.33,19.17,7.74,2.14-.62,4.91.32,6.29,2.2,1.46,1.89.87,4.03-1.28,4.81-2.17.73-5.06-.26-6.49-2.14-.51-.73-.77-1.42-.77-2.1-1.12-.42-19.56-6.22-23.34-6.22s-4.66,2.35-7.8,3.08c-2.53.68,10.82,5.13,15.98,6.81.13-.11.29-.16.42-.26,2.07-.89,4.96-.21,6.54,1.57,1.55,1.72,1.17,3.87-.89,4.81-2.02.89-4.95.21-6.5-1.52-.44-.52-.72-.99-1.1-1.62-26.13-9.9-25.36-6.29-31.2-3.15-1.36.95,14.82,5.66,19.67,7.07,1.82-.47,4.02.06,5.39,1.31,1.68,1.57,1.46,3.71-.44,4.81-1.92,1.04-4.83.63-6.52-.95-.5-.47-.85-1.04-1-1.56l-.36-.16c-25.32-10.1-28.64-5.08-30.99-2.72-2.33,2.3,18.05,7.7,18.05,7.7.21-.21.46-.37.74-.53,1.96-.94,4.8-.37,6.34,1.26,1.56,1.62,1.27,3.71-.66,4.66-1.93.94-4.76.36-6.32-1.21,0,0-23.8-9.16-30.04-5.65-26.39,14.87-44.42,28.05-70.55,59.25l-10.81-.21c3.14-9,69.01-61.39,78.23-64.85,3.71.16,14.84-31.98,14.84-29.67,0,.21,0,.37.03.57-.23-2.67.69-5.6,2.5-7.43,2.28-2.25,5.09-1.72,6.29,1.15,1.18,2.93.29,7.12-1.99,9.42-1.2,1.2-2.54,1.68-3.71,1.36-.52,2.04-10.97,20.52-6.44,19.52,12.65-2.99,16.01-14.81,24.21-32.3.03-.1.05-.21.08-.32-.11-.31-.17-.68-.19-1.04-.21-2.93,1.91-6.33,4.75-7.64,2.84-1.31,5.32-.05,5.57,2.88.21,2.88-1.91,6.33-4.74,7.64-.52.26-.99.42-1.44.47-1.67,6.33-21.33,31.09,2.84,15.86,10.07-9.84,15.52-20.36,16.05-24.65-.56-.21-.81-.52-.33-1.1,0-.37-.07-.62-.07-.99-.16-2.72,2-5.76,4.85-6.86,2.84-1.09,5.24.21,5.4,2.93.17,2.66-2.01,5.75-4.84,6.85-.19.05-.36.1-.54.15-1.88.84-14.95,20.36-8.53,18.58,4.37-2.52,6.87-3.87,8.95-5.66,3.22-2.88,5.44-6.85,12.04-18.06-.43-.21-.56-.47-.1-.84-.1-.42-.22-.79-.25-1.2-.21-2.56,1.89-5.34,4.68-6.28,2.76-.99,5.19.26,5.4,2.77.22,2.52-1.87,5.29-4.63,6.28-.43.16-.87.21-1.23.26-5.14,8.69-13.21,17.59-3.96,15.49,11.3-6.8,10.72-10.31,18.11-18.31,1.4-1.47.64-2.1.56-2.72-.29-2.3,1.66-4.87,4.4-5.76,2.73-.84,5.17.32,5.5,2.67.29,2.36-1.66,4.92-4.4,5.76-.74.26-1.48.32-2.14.26l.38.21s-14.96,14.87-4.88,12.45c15.42-6.22,22.19-16.95,23.19-18.84-.14.42.4.73,1.17.99-.48-.47-.84-1.1-.96-1.83-.33-2.14,1.58-4.5,4.26-5.18,2.69-.62,5.17.63,5.52,2.83.32,2.14-1.58,4.5-4.26,5.12l-.33.06c-.42,2.19-25.4,17.9-4.79,12.77,7.39-4.87,16.75-12.51,18.97-15.97l-.08-.26c-.46-2.09,1.34-4.19,3.97-4.71,2.64-.58,5.14.68,5.6,2.77.42,2.09-1.35,4.24-3.97,4.76-.25.05-.86.05-.91.16-7.8,6.02-22.84,12.24-8.77,12.24,8.95,1.58,20.86-13.03,24.98-15.12l-.13-.32c-.56-2.04,1.09-4.03,3.66-4.4,2.58-.42,5.16.84,5.72,2.88.56,1.98-1.07,3.98-3.65,4.34-.49.1-3.12-.26-3.32-.26-2.25.47-17.79,11.62-6.29,11.62s21.14-12.77,21.14-12.77c-.38-1.78,1.1-3.46,3.48-3.77,2.54-.31,5.17,1.05,5.86,2.99.7,1.99-.8,3.87-3.32,4.18-.72.06-1.42.06-2.11-.1-1.32,1.1-14.23,7.96-7.24,8.8,12.76,1.88,11.42-8.95,20.36-10.99-.77-1.99.61-3.72,3.12-3.82,2.49-.16,4.6,2.09,5.38,4.08.79,2.04-1.34,4.34-2.97,3.14-3.66-2.61-14.96,6.65-11.25,7.23,12.07,3.3,19.86-7.8,20.07-7.75.18-1.2,1.34-2.09,3.07-2.09,2.48,0,5.16,1.67,6.01,3.76.89,2.09-2.49,1.89-3.24,2.93-1.47,0-2.62.21-3.83-.73-.18.1-4.71,4.14-4.95,4.24,6.78.47,10.95,1.25,13.5,2.14"/>
    <path class="cls-8" d="M624.34,563.84c.24-1.2,1.23-2.04,2.68-2.14,2.16-.1,4.58,1.51,5.38,3.66.84,2.14-.29,3.93-2.46,4.08-1.04,0-5.04.84-5.04-2.3,0,0-8.79-3.51-15.41.21-2.76,1.52,4.88,4.4,4.88,4.4,2.6-.15,5.44,1.78,6.4,4.34.97,2.52-.34,4.71-2.92,4.81-2.57.16-5.47-1.78-6.4-4.34-.48-1.25-.41-2.41,0-3.35-8.02-8.37-16.38-5.86-19.11-5.86-2.16,0,2.88,5.55,4.96,7.12.3-.05.61,1.47.94,1.42,2.55-.16,4.64.63,6.41,2.61.96,2.46-.81,3.67-3.35,3.82-2.53.26-4.88-.68-5.85-3.14-.29-.73-.41-1.42-.38-2.09-8.19-10.89-23.2-11.31-23.2-9.74,0,1.05,6.83,4.34,9.36,6.85.29-.05.59-.1.88-.15,2.53-.21,5.36,1.57,6.38,4.03,1.01,2.41-.09,3.3-2.57,3.51-2.49.21-5.44-.32-6.47-2.72-.5-1.2-1.82-2.25-1.33-3.14-3.89-5.18-20.58-9.47-23.21-7.59-2.72,1.94,8.77,8.27,8.77,8.38,2.41-.16,6.11.68,7.13,2.98,1.05,2.36-.07,4.5-2.55,4.71-2.46.26-5.27-1.42-6.32-3.77-.18-.47-.3-.89-.38-1.25l-.39-.52c-11.32-11.31-21.86-9.74-23.8-9.37-1.58.32,6.44,4.81,10.02,7.01.29-.15.64-.21,1.05-.26,2.41-.32,5.22,1.31,6.29,3.66,1.07,2.3-.03,4.4-2.43,4.71-2.42.32-5.24-1.36-6.31-3.66-.42-.94-2.06-1.89-1.82-2.62-18.89-13.29-24.42-7.27-27.47-7.27-2.66,0,13.45,9.16,13.45,9.16,2.36-.37,5.85-.47,7,1.78,1.1,2.25.11,4.34-2.25,4.71-2.37.42-5.18-1.1-6.31-3.35-.34-.68-.51-1.31-.48-1.94-24.65-14.08-25.05-6.85-25.05-6.85l14.25,8.79c.21-.1.44-.15.64-.21,2.3-.42,5.14.99,6.33,3.14,1.2,2.14.29,4.29-2.01,4.71-2.33.42-5.15-.95-6.32-3.09-.22-.42-.38-.79-.46-1.2l-.76-.84c-14.78-11.52-22.2-9.37-26.87-8.17-3.99.99,9.3,5.23,13.56,7.9.21-.1.42-.15.67-.26,2.25-.57,6.65.68,7.93,2.72,1.28,2.04-1.07,4.19-3.3,4.76-2.25.58-5.09-.68-6.37-2.72-.73-1.15-.79-2.36-.33-3.24l-.49-.21c-25.03-11.57-23.95-4.29-30.6-2.72-6.32,1.47,17.26,7.33,19.17,7.74,2.14-.62,4.91.32,6.29,2.2,1.46,1.89.87,4.03-1.28,4.81-2.17.73-5.06-.26-6.49-2.14-.51-.73-.77-1.42-.77-2.1-1.12-.42-19.56-6.22-23.34-6.22s-4.66,2.35-7.8,3.08c-2.53.68,10.82,5.13,15.98,6.81.13-.11.29-.16.42-.26,2.07-.89,4.96-.21,6.54,1.57,1.55,1.72,1.17,3.87-.89,4.81-2.02.89-4.95.21-6.5-1.52-.44-.52-.72-.99-1.1-1.62-26.13-9.9-25.36-6.29-31.2-3.15-1.36.95,14.82,5.66,19.67,7.07,1.82-.47,4.02.06,5.39,1.31,1.68,1.57,1.46,3.71-.44,4.81-1.92,1.04-4.83.63-6.52-.95-.5-.47-.85-1.04-1-1.56l-.36-.16c-25.32-10.1-28.64-5.08-30.99-2.72-2.33,2.3,18.05,7.7,18.05,7.7.21-.21.46-.37.74-.53,1.96-.94,4.8-.37,6.34,1.26,1.56,1.62,1.27,3.71-.66,4.66-1.93.94-4.76.36-6.32-1.21,0,0-23.8-9.16-30.04-5.65-26.39,14.87-44.42,28.05-70.55,59.25l-10.81-.21c3.14-9,69.01-61.39,78.23-64.85,3.71.16,14.84-31.98,14.84-29.67,0,.21,0,.37.03.57-.23-2.67.69-5.6,2.5-7.43,2.28-2.25,5.09-1.72,6.29,1.15,1.18,2.93.29,7.12-1.99,9.42-1.2,1.2-2.54,1.68-3.71,1.36-.52,2.04-10.97,20.52-6.44,19.52,12.65-2.99,16.01-14.81,24.21-32.3.03-.1.05-.21.08-.32-.11-.31-.17-.68-.19-1.04-.21-2.93,1.91-6.33,4.75-7.64,2.84-1.31,5.32-.05,5.57,2.88.21,2.88-1.91,6.33-4.74,7.64-.52.26-.99.42-1.44.47-1.67,6.33-21.33,31.09,2.84,15.86,10.07-9.84,15.52-20.36,16.05-24.65-.56-.21-.81-.52-.33-1.1,0-.37-.07-.62-.07-.99-.16-2.72,2-5.76,4.85-6.86,2.84-1.09,5.24.21,5.4,2.93.17,2.66-2.01,5.75-4.84,6.85-.19.05-.36.1-.54.15-1.88.84-14.95,20.36-8.53,18.58,4.37-2.52,6.87-3.87,8.95-5.66,3.22-2.88,5.44-6.85,12.04-18.06-.43-.21-.56-.47-.1-.84-.1-.42-.22-.79-.25-1.2-.21-2.56,1.89-5.34,4.68-6.28,2.76-.99,5.19.26,5.4,2.77.22,2.52-1.87,5.29-4.63,6.28-.43.16-.87.21-1.23.26-5.14,8.69-13.21,17.59-3.96,15.49,11.3-6.8,10.72-10.31,18.11-18.31,1.4-1.47.64-2.1.56-2.72-.29-2.3,1.66-4.87,4.4-5.76,2.73-.84,5.17.32,5.5,2.67.29,2.36-1.66,4.92-4.4,5.76-.74.26-1.48.32-2.14.26l.38.21s-14.96,14.87-4.88,12.45c15.42-6.22,22.19-16.95,23.19-18.84-.14.42.4.73,1.17.99-.48-.47-.84-1.1-.96-1.83-.33-2.14,1.58-4.5,4.26-5.18,2.69-.62,5.17.63,5.52,2.83.32,2.14-1.58,4.5-4.26,5.12l-.33.06c-.42,2.19-25.4,17.9-4.79,12.77,7.39-4.87,16.75-12.51,18.97-15.97l-.08-.26c-.46-2.09,1.34-4.19,3.97-4.71,2.64-.58,5.14.68,5.6,2.77.42,2.09-1.35,4.24-3.97,4.76-.25.05-.86.05-.91.16-7.8,6.02-22.84,12.24-8.77,12.24,8.95,1.58,20.86-13.03,24.98-15.12l-.13-.32c-.56-2.04,1.09-4.03,3.66-4.4,2.58-.42,5.16.84,5.72,2.88.56,1.98-1.07,3.98-3.65,4.34-.49.1-3.12-.26-3.32-.26-2.25.47-17.79,11.62-6.29,11.62s21.14-12.77,21.14-12.77c-.38-1.78,1.1-3.46,3.48-3.77,2.54-.31,5.17,1.05,5.86,2.99.7,1.99-.8,3.87-3.32,4.18-.72.06-1.42.06-2.11-.1-1.32,1.1-14.23,7.96-7.24,8.8,12.76,1.88,11.42-8.95,20.36-10.99-.77-1.99.61-3.72,3.12-3.82,2.49-.16,4.6,2.09,5.38,4.08.79,2.04-1.34,4.34-2.97,3.14-3.66-2.61-14.96,6.65-11.25,7.23,12.07,3.3,19.86-7.8,20.07-7.75.18-1.2,1.34-2.09,3.07-2.09,2.48,0,5.16,1.67,6.01,3.76.89,2.09-2.49,1.89-3.24,2.93-1.47,0-2.62.21-3.83-.73-.18.1-4.71,4.14-4.95,4.24,6.78.47,10.95,1.25,13.5,2.14Z"/>
    <path class="cls-13" d="M237.35,653.23c-.1.21-.23.47-.36.68.9,1.41.15,2.36-.25,3.77-.34,1.36-1.63,3.3-1.63,3.3.35,1.62.19,2.36,2.14,3.67.66.42-5.73-.32-5.73-.32l-2.84-4.71c-.81-1.83-.89-4.45-1.64-6.38h-14.45c5.55,7.01,14.15,11.56,23.83,11.56s18.24-4.56,23.79-11.56h-22.86"/>
    <path class="cls-13" d="M226.81,636.06c-.26.42-.13,1.1-.88,1.1-.1-1.16-2.07-.16-1.94-1.2.92-.06,1.91-.95,2.81.1M229.29,635.12c-.79.15-1.74.26-2.1,1.1.16,1.47,1.79,1.52,2.36.73.46-.58.38-2.05-.26-1.83M230.97,636.74c-.43.16-.13-1.04.29-.99.33,0,.62.26.51.58l-.8.41ZM253.37,609.69c-.97-.32-1.35.31-1.77,1.2.08.79-.92.89-1.27.47l-1.54-.84-1.13,2.67c1.13.99,2.76,1.25,3.18,2.83.49,1.67-1.77,3.35-3.48,3.82-1.2-.73-1.82-3.98-4.07-2.56-.08.52.64,1.94-.22,2.09l-1.12.06.63,1.57c-1.48,1.25-3.95.83-5.39,2.25-1.03,1.1,2.46,2.3,3.72,3.46,1.28-1,4.69.57,4.15-2.36,2.44-.26,3.73.73,5.95-1.1.42,1.36-.7,2.67-1.04,3.77-2.69,1.1-5.63,1.78-8.64,1.78-2.3-.05-1.9,4.24-2.81,6.33-1.08,2.46,4.16,2.77,6.24,4.14,1.55.99,3.49-2.62,5.08-1.47,2.08,1.57,1.62,5.66,3.74,9.37,0,1.1-.77,1.05-1.34,1.83,1.61.57,2.09,2.41,3.43,3.14,1.5-.37,2.84,1.2,4.75.21-.71-3.04-.79-5.6-.3-8.79l-.94-4.71s3.03.73,3.11-.47c.1-2.2-1.07-3.14.21-4.19-.49-1.83-2.3-2.98-3.94-3.56l-2.18-.06c-.51-1.62-1.49-3.66-1.54-5.65-.6-.94-2.04-.57-2.32-1.67,1.35-.32,2.7-.73,4.26.26,1.28,1.31,2.55,3.14,3.63,4.87.42.63,1.68-.15,2.22-.94.69.94,3.82,3.56,3.64,2.14-1.61-11.46-10.61-19.1-12.92-19.89M241.9,604.76c1.66.21,1.09,2.77,2.04,3.77l-.64,1.99-1.43,2.09-2.81,1.31c1.38,2.14-1.44,2.19-2.38,2.93,0,0-.97-1.67-1.99-1.78-1.34-.16-2.59,2.19-2.59,2.19-1.13-.32-1.91-1.42-2.89-1.94.77-1.2,3.23-2.77,1.12-4.24-.89-1.46-2.37.32-3.44-.68-1.05-.95-.95-2.78-1.25-4.19,0,0,5.44-2.93,16.27-1.47M212.62,653.23c-4.05-5.19-6.46-11.67-6.46-18.74,0-16.7,13.54-30.25,30.26-30.25s30.28,13.55,30.28,30.25c0,7.07-2.42,13.55-6.47,18.74h-22.85c1.25-2.46,1.77-4.77,2.58-7.33-.81-1.1-1.67-2.09-3.27-1.57-2.41.73-2.74-2.77-4.29-4.03-1.77.1-3.24,1.31-5.4,1.25-1.21,1.52-2.53.15-4.03,0-1.21-1,.56-2.36-.29-3.46-.74-.73-1.31.42-1.79.73-2.23.52-3.28-2.1-2.28-3.35,1.07-1.31,2.67-3.51,2.67-3.51,1.19.37.7,1.89.97,2.52l1.31-1.05-.37-1.78c-.66-2.09,1.95-3.55,3.22-4.97.23-1,.03-2.56-.62-3.56l2.47-4.24c1.69-1.89-1.15-2.61-2.07-3.82l-4.76,3.71c-.87-.73-1.78-2.51-.73-2.77,1.24-.32,1.78-1.36,2.81-1.99-.45-.68-1.1-1.47-2.08-1.36,0,0-6.38.79-7.31,1.47-2.76,1.94-5.44,8.64-5.44,8.64l.37.37c1.35.52,2.52,1.2,2.6,2.41.56,3.46-.43,6.6-1.12,9.58.99,1.36,1.82,2.67,2.09,4.45h1.02c-.02-1.1-.79-1.94-.94-3.09.56-.89,1.61-.94,2.81-.89,0,0-.06,2.09.58,3.19.95,1.62,3.25,1.93,4.19,2.35,3.2,1.05,2.33,3.98,1.15,6.23.98.84.83,3.24,2.28,3.3,1.87.05,2.81,1.1,3.37,2.57h-14.44"/>
    <path class="cls-2" d="M206.14,634.49c0-16.7,13.56-30.25,30.29-30.25s30.25,13.55,30.25,30.25-13.54,30.3-30.25,30.3-30.29-13.55-30.29-30.3ZM226.8,636.06c-.23.42-.13,1.1-.85,1.1-.13-1.16-2.09-.16-1.96-1.2.92-.06,1.91-.95,2.81.1ZM214.11,614.13c.91-.68,7.29-1.42,7.29-1.42.98-.21,1.66.63,2.08,1.31-1.05.62-1.55,1.62-2.81,1.99-1.02.32-.13,2.04.73,2.83l4.76-3.76c.91,1.2,3.75,1.93,2.09,3.82l-2.5,4.24c.68,1,.89,2.56.63,3.56-1.27,1.36-3.89,2.93-3.2,5.03l.37,1.72-1.33,1.05c-.24-.58.21-2.15-.97-2.52,0,0-1.57,2.2-2.67,3.56-.97,1.2.05,3.76,2.3,3.3.48-.32,1.04-1.47,1.77-.73.85,1.1-.92,2.46.29,3.4,1.53.21,2.81,1.58,4.03,0,2.2.06,3.64-1.09,5.43-1.25,1.56,1.25,1.86,4.82,4.26,4.09,1.61-.58,2.49.47,3.3,1.57-.92,2.83-1.43,5.34-2.97,8.01.88,1.41.15,2.36-.25,3.77-.36,1.36-1.63,3.3-1.63,3.3.35,1.62.22,2.36,2.14,3.67.66.42-5.73-.32-5.73-.32l-2.84-4.71c-1.4-3.2-.57-8.8-4.99-8.95-1.48-.05-1.32-2.46-2.3-3.3,1.2-2.25,2.05-5.19-1.13-6.18-.97-.48-3.27-.79-4.21-2.41-.64-1.1-.59-3.19-.59-3.19-1.2-.05-2.25,0-2.81.89.18,1.15.91,1.99.96,3.14h-1.04c-.28-1.78-1.07-3.14-2.09-4.5.69-2.98,1.68-6.12,1.15-9.58-.07-1.2-1.25-1.89-2.6-2.41l-.4-.37s2.71-6.65,5.47-8.64ZM229.27,635.12c-.79.15-1.74.26-2.09,1.1.18,1.47,1.79,1.52,2.36.73.46-.58.38-2.05-.26-1.83ZM230.98,636.8c-.43.05-.13-1.05.26-1.05.33,0,.61.26.54.62l-.8.42ZM253.36,609.69c-.94-.32-1.31.31-1.77,1.2.1.79-.89.89-1.24.42l-1.57-.79-1.13,2.67c1.13.99,2.79,1.25,3.21,2.83.48,1.67-1.77,3.35-3.51,3.82-1.2-.73-1.82-3.98-4.05-2.56-.1.57.64,1.94-.25,2.09l-1.12.06.62,1.57c-1.48,1.25-3.95.83-5.36,2.3-1.02,1.05,2.46,2.25,3.73,3.4,1.28-1,4.65.57,4.14-2.36,2.41-.21,3.71.79,5.93-1.05.42,1.25-.71,2.57-1.05,3.72-2.68,1.04-5.63,1.83-8.61,1.78-2.3-.05-1.9,4.24-2.81,6.33-1.1,2.46,4.16,2.77,6.22,4.14,1.55.99,3.52-2.62,5.07-1.42,2.11,1.52,1.65,5.66,3.77,9.32,0,1.1-.77,1.05-1.34,1.89,1.58.52,2.07,2.3,3.4,3.09,1.53-.37,2.87,1.2,4.77.21-.7-3.04-.79-5.55-.33-8.84l-.95-4.66s3.07.73,3.12-.47c.13-2.2-1.07-3.14.21-4.19-.48-1.83-2.28-2.98-3.94-3.56l-2.14-.06c-.54-1.62-1.52-3.71-1.55-5.65-.62-.94-2.04-.57-2.32-1.62,1.35-.37,2.68-.79,4.24.21,1.31,1.25,2.55,3.14,3.65,4.87.42.63,1.68-.15,2.18-.94.71.94,3.86,3.56,3.65,2.14-1.61-11.51-10.58-19.1-12.91-19.89ZM241.88,604.71c1.69.26,1.1,2.83,2.07,3.82l-.64,1.99-1.45,2.04-2.81,1.36c1.4,2.14-1.42,2.19-2.38,2.88,0,0-.94-1.62-1.99-1.72-1.31-.16-2.59,2.19-2.59,2.19-1.12-.32-1.91-1.42-2.89-1.89.77-1.25,3.23-2.88,1.12-4.24-.87-1.51-2.34.26-3.42-.73-1.09-.95-.96-2.78-1.25-4.19,0,0,5.44-2.93,16.23-1.52Z"/>
    <path class="cls-13" d="M433.17,556.93l-20.66-13.56-4.7,23.71-4.68-23.71-20.69,13.56,14.04-19.99-24.54-4.56,24.54-4.5-14.04-20.04,20.69,13.6,4.68-23.76,4.7,23.76,20.66-13.6-14.02,20.04,24.52,4.5-24.52,4.56,14.02,19.99"/>
    <path class="cls-4" d="M433.17,556.93l-20.66-13.56-4.7,23.71-4.68-23.71-20.69,13.56,14.04-19.99-24.54-4.56,24.54-4.5-14.04-20.04,20.69,13.6,4.68-23.76,4.7,23.76,20.66-13.6-14.02,20.04,24.52,4.5-24.52,4.56,14.02,19.99Z"/>
    <path class="cls-11" d="M128.12,311.73c49.31-109.07,173.67-168.63,276.52-206.26,102.87,37.63,227.93,97.08,277.3,206.26,67.61,149.48,21.33,299.69-77.6,411.79-49.34,55.95-98.88,99.18-136.08,128.44-37.25,29.36-63.61,45.59-63.61,45.59,0,0-26.15-16.22-63.24-45.59-37.02-29.26-86.35-72.49-135.68-128.44-98.97-112.11-145.21-262.32-77.6-411.79Z"/>
    <path class="cls-7" d="M111.94,302.15c52.19-115.41,183.83-178.42,292.7-218.25,108.87,39.83,241.22,102.74,293.49,218.25,71.54,158.27,22.58,317.27-82.15,435.92-52.22,59.2-104.66,104.99-144.03,135.92-39.41,31.09-67.33,48.25-67.33,48.25,0,0-27.69-17.16-66.92-48.25-39.17-30.93-91.41-76.73-143.63-135.92-104.73-118.65-153.69-277.65-82.13-435.92Z"/>
    <path class="cls-13" d="M739.19,342.76c-1.66.68-2.83,1.47-3.5,2.36-1.23,1.67-1.47,4.08-.69,7.22.46,1.89,1.02,3.35,1.71,4.45,1.31,2.04,3.02,2.77,5.14,2.3,1.23-.31,2.04-1.09,2.48-2.35.37-1.26.56-3.15.48-5.6l-.09-4.29c-.08-4.18.22-7.17.89-8.84,1.12-2.99,3.48-4.87,7.16-5.76,3.35-.79,6.42-.21,9.24,1.68,2.81,1.93,4.8,5.28,5.95,10.05.97,3.98.72,7.64-.67,10.94-1.43,3.35-4.07,5.55-8.01,6.65l-1.83-7.54c2.22-.63,3.57-2.05,4.08-4.14.32-1.42.26-3.04-.22-4.87-.46-2.1-1.28-3.62-2.38-4.66-1.1-1.05-2.38-1.36-3.83-1.05-1.34.32-2.19,1.2-2.58,2.57-.23.89-.37,2.66-.34,5.34l.05,6.91c.03,3.09-.36,5.44-1.15,7.17-1.23,2.62-3.48,4.34-6.8,5.13-3.44.84-6.57.21-9.49-1.83-2.9-2.09-4.91-5.6-6.08-10.41-1.18-4.92-1.02-9.05.54-12.41,1.51-3.35,4.22-5.49,8.11-6.44l1.83,7.43"/>
    <path class="cls-13" d="M774.06,486.69l-25.06-1.05-.32,7.43c-.17,3.77,1.6,6.49,5.27,8.11,2.02.94,4.45,1.41,7.27,1.57,3.91.15,6.93-.32,9.08-1.47,2.15-1.15,3.3-3.56,3.46-7.17l.3-7.43ZM779.28,501.61c-.99,2.67-2.71,4.81-5.15,6.38-1.95,1.25-4.07,2.09-6.32,2.46-2.25.42-4.37.58-6.39.47-5.12-.21-9.39-1.41-12.84-3.66-4.66-2.93-6.88-7.32-6.65-13.13l.71-16.54,38.39,1.57-.67,16.54c-.15,2.41-.51,4.4-1.09,5.91"/>
    <path class="cls-13" d="M743.21,544.31c1.82,2.41,4.83,4.14,9,5.19,4.18,1.04,7.64.94,10.4-.26,2.73-1.25,4.5-3.4,5.27-6.49.79-3.08.28-5.86-1.54-8.27-1.81-2.41-4.8-4.13-9.01-5.18-4.18-1.05-7.66-.94-10.39.32-2.74,1.25-4.5,3.4-5.29,6.49-.77,3.08-.26,5.81,1.56,8.21M736.33,547.72c-2.2-3.51-2.63-7.95-1.3-13.29,1.38-5.34,3.86-9,7.46-11.09,4.5-2.88,10.13-3.46,16.8-1.78,6.83,1.72,11.5,4.92,13.94,9.58,2.19,3.51,2.6,7.95,1.25,13.29-1.34,5.34-3.83,9-7.42,11.09-4.4,2.93-9.99,3.51-16.8,1.78-6.7-1.72-11.35-4.92-13.94-9.58"/>
    <path class="cls-13" d="M758.54,599.01l-3.27,11.09-36.87-10.89,2.11-7.23,24.96,7.39c.72.21,1.71.57,3,.94,1.28.37,2.28.68,2.97.89l-28.85-16.12,2.18-7.48,33.03,2.2c-.73-.21-1.71-.47-3.01-.84-1.31-.42-2.3-.68-3.02-.89l-24.93-7.38,2.12-7.17,36.85,10.94-3.3,11.2-30.97-1.89,27.01,15.23"/>
    <path class="cls-13" d="M709.52,617.11l35.82,13.93,2.89-7.43-35.83-13.92-2.89,7.43"/>
    <path class="cls-13" d="M736.23,646.84l-3.86,7.48-30.81,1.31,23.81,12.3-3.43,6.6-34.16-17.59,3.67-7.12,31.43-1.46-24.26-12.46,3.44-6.64,34.17,17.58"/>
    <path class="cls-13" d="M762.11,401.85l-5.87.68,1.17,10.73-10.9,1.2.62,5.81,10.89-1.15,1.19,10.78,5.86-.63-1.17-10.78,10.91-1.2-.63-5.81-10.9,1.2-1.17-10.84"/>
    <path class="cls-13" d="M679.32,670.6l-4.24,7.28,33.69,19.58,4.23-7.27-33.68-19.58"/>
    <path class="cls-13" d="M671.6,731.74c8.25,3.77,16.18.32,20.5-6.91,6.1-10.1,1.95-20.72-7.97-26.69-9.64-5.76-20.92-4.45-27.03,5.7-4.83,8.01-2.87,16.85,5.01,22.56l4.2-6.96c-4.07-3.19-5.68-7.54-3.02-11.88,3.89-6.49,10.96-5.55,16.51-2.2,5.83,3.51,10.01,9.32,6.14,15.8-2.15,3.56-6.57,5.13-10.17,3.61l-4.17,6.96"/>
    <path class="cls-13" d="M641.06,725.04l-5.32,6.54,30.15,24.7,5.32-6.49-30.15-24.76"/>
    <path class="cls-13" d="M625.85,780.1l10.76,9.74-3.6,3.93,2.45,2.19,9.83-10.78-2.44-2.25-3.62,4.03-10.74-9.78-2.63,2.93"/>
    <path class="cls-13" d="M618.28,788.42l13.18,11.94,2.63-2.88-13.19-11.93-2.62,2.88"/>
    <path class="cls-13" d="M621.1,794.12c-3.24-2.99-7.13-1.57-9.77,1.36-3.27,3.56-3.17,7.12-.76,9.32,3.01,2.72,6.31.32,7.4-.42,3.82-2.52,4.56-3.04,5.58-2.15,1.1,1.05.5,2.46-.33,3.35-1.25,1.41-2.68,2.14-4.34.84l-2.57,2.77c3.05,2.77,6.56,1.36,9.05-1.41,2.15-2.41,3.16-6.13.49-8.58-2.5-2.25-5.04-.89-7.34.57-2.26,1.47-4.29,3.24-5.72,1.94-1.36-1.2-.23-3.04.68-4.08,1.42-1.52,3.35-2.3,5.09-.68l2.54-2.83"/>
    <path class="cls-13" d="M604.94,773.13l-4.15-3.71-2.01,2.2,4.13,3.76-3.72,4.14,2.22,1.99,3.73-4.14,4.17,3.77,2.02-2.25-4.17-3.71,3.73-4.14-2.2-2.04-3.75,4.13"/>
  </g>
</svg>